<?xml version="1.0" encoding="UTF-8"?>
<svg xmlns="http://www.w3.org/2000/svg" xmlns:xlink="http://www.w3.org/1999/xlink" width="42px" height="42px" viewBox="0 0 42 42" version="1.1">
<g id="surface1">
<path style=" stroke:none;fill-rule:nonzero;fill:rgb(0%,0%,0%);fill-opacity:1;" d="M 8.007812 8.007812 C 9.03125 6.980469 10.691406 6.980469 11.71875 8.007812 L 21 17.289062 L 30.28125 8.007812 C 31.3125 7.011719 32.949219 7.027344 33.960938 8.039062 C 34.972656 9.050781 34.988281 10.6875 33.992188 11.71875 L 24.710938 21 L 33.992188 30.28125 C 34.988281 31.3125 34.972656 32.949219 33.960938 33.960938 C 32.949219 34.972656 31.3125 34.988281 30.28125 33.992188 L 21 24.710938 L 11.71875 33.992188 C 10.6875 34.988281 9.050781 34.972656 8.039062 33.960938 C 7.027344 32.949219 7.011719 31.3125 8.007812 30.28125 L 17.289062 21 L 8.007812 11.71875 C 6.980469 10.691406 6.980469 9.03125 8.007812 8.007812 Z M 8.007812 8.007812 "/>
</g>
</svg>
