<?xml version="1.0" encoding="UTF-8"?>
<svg xmlns="http://www.w3.org/2000/svg" xmlns:xlink="http://www.w3.org/1999/xlink" width="42px" height="42px" viewBox="0 0 42 42" version="1.1">
<g id="surface1">
<path style=" stroke:none;fill-rule:evenodd;fill:rgb(100%,100%,100%);fill-opacity:1;" d="M 18.992188 7.230469 C 19.753906 5.472656 22.246094 5.472656 23.007812 7.230469 L 26.472656 15.21875 L 35.140625 16.046875 C 37.046875 16.226562 37.816406 18.59375 36.382812 19.863281 L 29.851562 25.625 L 31.746094 34.125 C 32.164062 35.996094 30.148438 37.460938 28.5 36.484375 L 21 32.058594 L 13.5 36.484375 C 11.851562 37.460938 9.835938 35.996094 10.253906 34.125 L 12.148438 25.625 L 5.617188 19.863281 C 4.183594 18.59375 4.953125 16.226562 6.859375 16.046875 L 15.527344 15.21875 Z M 21 11.398438 L 18.328125 17.558594 L 17.917969 18.507812 L 16.890625 18.605469 L 10.203125 19.242188 L 15.238281 23.6875 L 16.011719 24.371094 L 15.789062 25.378906 L 14.328125 31.933594 L 20.109375 28.519531 L 21 27.996094 L 21.890625 28.519531 L 27.671875 31.933594 L 26.210938 25.378906 L 25.988281 24.371094 L 26.761719 23.6875 L 31.796875 19.242188 L 25.109375 18.605469 L 24.082031 18.507812 L 23.671875 17.558594 Z M 21 11.398438 "/>
</g>
</svg>
