<?xml version="1.0" encoding="UTF-8" standalone="no"?>
<!DOCTYPE svg PUBLIC "-//W3C//DTD SVG 1.1//EN" "http://www.w3.org/Graphics/SVG/1.1/DTD/svg11.dtd">
<svg width="100%" height="100%" viewBox="0 0 42 42" version="1.1" xmlns="http://www.w3.org/2000/svg" xmlns:xlink="http://www.w3.org/1999/xlink" xml:space="preserve" xmlns:serif="http://www.serif.com/" style="fill-rule:evenodd;clip-rule:evenodd;stroke-linecap:round;stroke-linejoin:round;stroke-miterlimit:1.5;">
    <g id="surface1">
        <path d="M18.992,7.23C19.754,5.473 22.246,5.473 23.008,7.23L26.473,15.219L35.141,16.047C37.047,16.227 37.816,18.594 36.383,19.863L29.852,25.625L31.746,34.125C32.164,35.996 30.148,37.461 28.5,36.484L21,32.059L13.5,36.484C11.852,37.461 9.836,35.996 10.254,34.125L12.148,25.625L5.617,19.863C4.184,18.594 4.953,16.227 6.859,16.047L15.527,15.219L18.992,7.23ZM21,11.398L18.328,17.559L17.918,18.508L16.891,18.605L10.203,19.242L15.238,23.688L16.012,24.371L15.789,25.379L14.328,31.934L20.109,28.52L21,27.996L21.891,28.52L27.672,31.934L26.211,25.379L25.988,24.371L26.762,23.688L31.797,19.242L25.109,18.605L24.082,18.508L23.672,17.559L21,11.398Z" style="fill:white;"/>
        <path d="M24.478,20.703C23.82,20.703 22.942,21.326 22.375,21.674C22.269,21.739 21.793,22.224 21.728,22.159C21.619,22.05 21.906,21.906 21.997,21.782C22.301,21.371 22.736,21.018 23.13,20.703C23.181,20.663 23.443,20.478 23.453,20.488C23.582,20.617 23.165,21.101 23.101,21.186C22.725,21.687 22.416,22.285 22.051,22.806C21.941,22.964 21.62,23.389 21.62,23.237" style="fill:none;stroke:white;stroke-width:1px;"/>
        <path d="M21.62,22.591C21.805,22.253 22.164,22.019 22.429,21.728C22.834,21.283 23.099,20.76 23.345,20.218C23.476,19.93 23.561,19.668 23.561,19.356L23.561,18.924C23.195,19.29 22.984,19.941 22.698,20.38C22.161,21.207 21.541,22.035 20.865,22.752C20.612,23.021 20.371,23.3 20.11,23.561C19.887,23.784 19.874,23.739 19.625,23.938C19.566,23.986 19.463,24.176 19.463,24.1C19.463,23.452 19.837,22.732 20.11,22.159C20.484,21.375 20.809,20.592 21.243,19.841C21.25,19.828 21.9,18.666 21.997,18.763C22.1,18.865 22,19.525 21.981,19.658C21.862,20.492 21.227,21.362 21.135,22.159C21.131,22.189 21.746,21.561 21.782,21.512C22.234,20.89 22.463,20.203 22.806,19.517C22.903,19.323 22.968,19.113 23.076,18.924C23.108,18.868 23.184,18.698 23.184,18.763C23.184,19.491 22.974,20.113 22.644,20.757C22.436,21.164 22.468,21.164 22.267,21.566C22.195,21.71 22.051,21.997 22.051,21.997L22.051,20.811C22.051,20.053 21.961,19.245 22.051,18.493C22.071,18.328 22.139,18.172 22.159,18.008C22.177,17.865 22.159,17.576 22.159,17.576C22.159,17.576 21.992,17.943 21.89,18.116C21.722,18.398 21.588,18.668 21.458,18.978C21.379,19.167 21.152,19.716 21.297,19.571C21.946,18.922 22.204,17.781 22.375,16.929C22.443,16.59 22.48,16.246 22.537,15.905C22.555,15.797 22.564,15.688 22.591,15.582C22.604,15.526 22.644,15.363 22.644,15.42C22.644,16.369 22.041,17.551 21.728,18.439C21.61,18.774 21.587,18.904 21.458,19.194C21.399,19.326 21.243,19.571 21.243,19.571C21.243,19.571 21.432,19.144 21.512,18.924C21.664,18.508 21.722,18.058 21.836,17.63C21.848,17.586 22.053,16.715 22.105,16.768C22.22,16.882 22.105,17.091 22.105,17.253C22.105,17.859 22.043,18.433 21.944,19.032C21.916,19.196 21.719,19.4 21.836,19.517C21.907,19.589 22.182,19.213 22.213,19.14C22.451,18.576 22.54,17.899 22.698,17.307C22.793,16.951 22.77,16.966 22.86,16.606C22.874,16.551 22.914,16.387 22.914,16.444C22.914,16.968 22.853,17.488 22.806,18.008C22.788,18.208 22.721,18.401 22.698,18.601L22.698,18.87C22.698,18.906 22.698,19.014 22.698,18.978C22.698,18.815 22.811,18.72 22.839,18.553C22.932,17.997 22.968,17.438 22.968,16.875L22.968,16.067C22.968,15.977 22.968,15.707 22.968,15.797L22.968,17.9C22.968,18.043 23.076,18.083 23.076,17.954L23.076,16.66C23.076,16.624 23.067,16.733 23.076,16.768C23.124,16.96 23.138,16.938 23.184,17.145C23.246,17.427 23.292,17.74 23.399,18.008C23.456,18.15 23.561,18.439 23.561,18.439C23.561,18.439 23.383,18.15 23.291,18.008C23.064,17.654 22.894,17.247 22.698,16.875C22.12,15.777 21.245,14.564 21.027,13.317C20.94,12.819 20.882,12.303 20.811,11.807C20.778,11.575 20.757,11.107 20.757,11.107C20.757,11.107 20.812,11.506 20.865,11.7C20.953,12.021 21.069,12.342 21.135,12.67C21.334,13.667 21.507,14.685 21.674,15.689C21.743,16.105 21.709,16.095 21.782,16.498C21.815,16.678 21.89,17.037 21.89,17.037C21.89,17.037 21.906,16.677 21.89,16.498C21.876,16.351 21.739,15.683 21.728,15.635C21.524,14.737 21.384,13.858 21.297,12.94C21.269,12.651 21.218,12.365 21.189,12.077C21.178,11.97 21.112,11.677 21.189,11.754C21.455,12.019 21.528,12.412 21.728,12.724C21.92,13.023 22.205,13.374 22.267,13.748C22.302,13.958 22.333,14.134 22.375,14.341C22.4,14.466 22.429,14.719 22.429,14.719C22.429,14.719 22.242,14.436 22.159,14.288C21.923,13.862 21.637,13.48 21.404,13.047C21.381,13.005 21.037,12.283 21.027,12.293C20.97,12.35 21.099,12.436 21.135,12.508C21.277,12.792 21.396,13.169 21.458,13.479C21.582,14.096 21.709,14.709 21.89,15.312C21.959,15.542 22.051,16.013 22.051,16.013C22.051,16.013 21.904,15.691 21.836,15.528C21.701,15.204 21.709,15.225 21.574,14.889C21.319,14.25 21.009,13.64 20.757,12.994C20.637,12.685 20.647,12.704 20.543,12.391C20.486,12.221 20.464,12.252 20.38,12.131C20.357,12.098 20.326,11.983 20.326,12.023C20.326,12.827 20.434,13.675 20.434,14.503L20.434,15.851C20.434,15.851 20.469,15.381 20.434,15.15C20.359,14.664 20.247,14.192 20.218,13.694L20.218,12.832C20.218,12.832 20.308,13.08 20.326,13.209C20.361,13.453 20.38,13.716 20.38,13.964L20.38,16.067C20.38,16.157 20.38,15.887 20.38,15.797C20.38,15.689 20.388,15.581 20.38,15.474C20.348,15.024 20.302,14.575 20.272,14.126C20.256,13.89 20.164,13.425 20.164,13.425L20.164,14.288C20.116,15.014 19.992,15.693 19.787,16.39L19.571,17.145C19.553,17.235 19.517,17.415 19.517,17.415L19.517,17.199C19.517,16.841 19.531,16.858 19.571,16.498C19.636,15.917 19.726,15.347 19.841,14.773C19.845,14.753 19.975,13.748 20.11,13.748C20.148,13.748 20.068,14.673 20.056,14.719C19.828,15.634 19.38,16.426 19.086,17.307C19.046,17.426 19.086,17.055 19.086,16.929C19.086,16.559 19.218,16.194 19.356,15.851C19.4,15.739 19.488,15.645 19.517,15.528C19.527,15.489 19.571,15.38 19.571,15.42C19.571,15.743 19.254,16.16 19.14,16.444C18.844,17.177 18.447,17.908 18.062,18.601C18.002,18.708 17.664,19.321 17.576,19.463C17.454,19.663 17.199,20.056 17.199,20.056C17.199,20.056 17.233,19.719 17.307,19.571C17.483,19.218 17.494,19.243 17.63,18.87C17.884,18.175 18.296,17.557 18.763,16.983C19.044,16.637 19.035,16.657 19.302,16.39C19.347,16.344 19.409,16.164 19.409,16.228C19.409,17.275 18.38,18.533 17.792,19.356C17.731,19.441 16.883,20.268 16.929,20.326C17.052,20.48 17.767,19.653 17.792,19.625C18.162,19.222 18.497,18.785 18.87,18.385C19.061,18.181 19.281,18.004 19.463,17.792C19.522,17.724 19.679,17.63 19.679,17.63C19.679,17.63 19.378,17.906 19.248,18.062C18.951,18.416 18.637,18.725 18.277,19.032C17.525,19.674 16.75,20.272 15.959,20.865C15.924,20.892 15.366,21.204 15.366,21.297C15.366,21.307 16.122,20.799 16.175,20.757C16.882,20.191 17.503,19.536 18.169,18.924C18.476,18.643 18.477,18.671 18.763,18.385C18.799,18.348 19.138,18.054 19.14,18.062C19.143,18.08 18.802,18.436 18.763,18.493C18.453,18.939 18.103,19.328 17.738,19.733C17.724,19.749 17.301,20.218 17.307,20.218C17.459,20.218 17.694,19.841 17.738,19.787C17.827,19.678 17.926,19.578 18.008,19.463C18.234,19.147 18.439,18.816 18.655,18.493C18.693,18.435 19.249,17.388 19.409,17.469C19.54,17.534 19.268,18.172 19.248,18.223C18.973,18.938 18.689,19.629 18.385,20.326C18.352,20.401 18.07,21.026 18.116,21.081C18.192,21.174 18.355,20.95 18.385,20.919C18.643,20.654 18.911,20.334 19.086,20.003C19.508,19.207 19.77,18.279 20.003,17.415C20.078,17.134 20.21,16.592 20.272,16.282C20.294,16.175 20.302,16.066 20.326,15.959C20.342,15.887 20.38,15.669 20.38,15.743C20.38,16.515 19.943,17.272 19.733,18.008C19.671,18.226 19.58,18.436 19.517,18.655C19.502,18.709 19.407,18.816 19.463,18.816C19.654,18.816 19.72,18.533 19.841,18.385C20.255,17.878 20.531,17.217 20.757,16.606C20.865,16.316 20.932,16.066 21.081,15.797C21.128,15.713 21.158,15.436 21.189,15.528C21.263,15.748 20.938,16.269 20.865,16.444C20.625,17.022 20.305,17.635 20.11,18.223C20.058,18.384 20.089,18.543 20.003,18.655C19.968,18.7 20.014,18.532 20.054,18.492C20.13,18.416 20.191,18.33 20.218,18.223C20.288,17.952 20.345,17.56 20.38,17.307C20.474,16.616 20.562,15.901 20.596,15.204C20.603,15.043 20.586,14.88 20.596,14.719C20.607,14.539 20.65,14.18 20.65,14.18L20.65,14.395C20.65,14.623 20.678,14.87 20.65,15.096C20.567,15.76 20.457,16.435 20.326,17.091C20.287,17.288 20.247,17.485 20.218,17.684C20.208,17.755 20.167,17.951 20.218,17.9C20.792,17.326 20.948,16.444 21.301,15.739C21.355,15.631 21.543,14.881 21.674,14.881C21.775,14.881 21.529,15.8 21.512,15.851C21.348,16.345 21.23,16.863 21.081,17.361C21.02,17.562 20.865,17.954 20.865,17.954C20.865,17.954 20.979,17.741 21.027,17.63C21.124,17.405 21.102,17.162 21.135,16.929C21.148,16.839 21.189,16.66 21.189,16.66L21.189,16.875C21.189,17.233 21.177,17.213 21.081,17.576C20.868,18.386 20.637,19.191 20.434,20.003C20.323,20.447 20.359,20.432 20.272,20.865C20.254,20.955 20.218,21.135 20.218,21.135C20.218,21.135 20.257,20.776 20.272,20.596C20.312,20.118 20.375,20.152 20.488,19.679C20.643,19.025 20.919,18.194 20.919,17.522C20.919,17.469 20.93,17.631 20.919,17.684C20.893,17.813 20.843,17.935 20.811,18.062C20.721,18.424 20.661,18.783 20.542,19.14C20.493,19.286 20.38,19.571 20.38,19.571C20.38,19.571 20.355,19.317 20.38,19.194C20.42,18.993 20.45,18.587 20.596,18.441C20.677,18.361 20.703,18.116 20.703,18.116C20.703,18.116 20.628,18.33 20.596,18.439C20.495,18.776 20.35,19.084 20.194,19.397C19.742,20.301 19.485,21.304 19.034,22.207C18.883,22.509 18.814,22.813 18.709,23.13C18.665,23.259 18.644,23.604 18.547,23.507C18.482,23.442 18.6,22.916 18.601,22.914C18.734,22.115 18.98,21.34 19.14,20.542C19.195,20.266 19.315,19.961 19.356,19.679C19.376,19.536 19.307,19.145 19.409,19.248C19.485,19.323 19.409,20.03 19.409,20.11L19.409,21.62C19.409,21.83 19.356,22.791 19.356,22.051C19.356,21.944 19.347,21.835 19.356,21.728C19.365,21.619 19.402,21.513 19.409,21.404C19.433,21.081 19.445,20.757 19.463,20.434C19.484,20.059 19.463,19.677 19.463,19.302C19.463,19.221 19.4,19.45 19.356,19.517C19.093,19.911 19.112,19.904 18.924,20.326C18.678,20.88 18.41,21.414 18.116,21.944C17.995,22.16 17.867,22.372 17.756,22.594C17.697,22.711 17.689,23.086 17.63,22.968C17.413,22.533 17.827,21.654 17.9,21.243C17.969,20.849 17.978,20.865 18.062,20.488C18.078,20.415 18.063,20.22 18.116,20.272C18.2,20.356 17.966,20.988 17.954,21.027C17.741,21.708 17.355,22.261 17.094,22.912C16.98,23.197 16.801,23.403 16.66,23.669C16.614,23.754 16.595,23.852 16.552,23.938C16.512,24.019 16.39,24.244 16.39,24.154C16.39,23.268 16.604,22.337 16.714,21.458C16.761,21.08 16.825,20.704 16.875,20.326C16.895,20.182 16.929,19.895 16.929,19.895C16.929,19.895 16.803,20.333 16.714,20.542C16.52,20.994 16.304,21.431 16.121,21.89C16.109,21.919 15.669,22.765 15.635,22.698C15.589,22.606 15.635,22.306 15.635,22.213C15.635,21.471 15.769,20.729 15.905,20.003C15.919,19.93 15.914,19.454 16.013,19.356C16.051,19.317 16.013,19.463 16.013,19.517C16.013,19.72 16.023,19.712 15.959,19.949C15.859,20.317 15.748,20.647 15.689,21.027C15.667,21.17 15.681,21.321 15.635,21.458C15.623,21.496 15.553,21.595 15.582,21.566C15.685,21.463 15.723,21.204 15.797,21.081C16.042,20.672 16.266,20.259 16.498,19.841C16.636,19.593 17.037,19.073 17.037,18.763C17.037,18.709 17.037,18.87 17.037,18.924L17.037,19.463C17.004,19.96 16.919,20.434 16.822,20.919C16.782,21.116 16.747,21.314 16.714,21.512C16.702,21.583 16.714,21.728 16.714,21.728C16.714,21.728 16.674,21.257 16.714,21.027C16.81,20.467 17.053,19.905 17.199,19.356C17.24,19.2 17.314,19.107 17.314,18.938C17.314,18.879 17.348,18.721 17.307,18.763C16.89,19.179 16.681,19.979 16.39,20.488C16.238,20.755 16.221,20.727 16.118,21.036C16.081,21.147 15.959,21.468 15.959,21.35C15.959,20.782 16.083,20.244 16.121,19.679C16.142,19.353 16.126,19.374 16.175,19.032C16.185,18.961 16.175,18.816 16.175,18.816C16.175,18.816 16.182,19.221 16.121,19.409C15.928,19.998 15.704,20.561 15.474,21.135C15.383,21.362 15.258,21.836 15.258,21.836L15.258,21.027C15.258,20.606 15.286,20.205 15.312,19.787L15.312,19.14C15.312,19.068 15.312,18.852 15.312,18.924C15.312,19.384 14.852,20.137 14.665,20.542C14.585,20.715 14.498,20.846 14.466,21.039C14.448,21.144 14.471,21.426 14.395,21.35C14.357,21.312 14.395,20.823 14.395,20.811C14.395,20.408 14.416,20.026 14.449,19.625C14.457,19.536 14.437,19.445 14.449,19.356C14.46,19.282 14.577,19.14 14.503,19.14C14.383,19.14 14.384,19.351 14.341,19.463C14.221,19.782 14.075,20.094 14.018,20.434C13.982,20.645 13.999,20.634 13.91,20.811C13.892,20.847 13.885,20.948 13.856,20.919C13.669,20.732 13.948,19.723 13.964,19.517C13.982,19.284 14.018,18.816 14.018,18.816C14.018,18.816 13.98,19.151 13.91,19.302C13.777,19.589 13.611,19.866 13.479,20.164C13.44,20.253 13.371,20.531 13.371,20.434C13.371,20.059 13.537,19.202 13.371,18.87C13.342,18.812 13.243,18.923 13.209,18.978C13.06,19.227 12.778,19.733 12.778,19.733C12.778,19.733 12.736,19.59 12.724,19.517C12.691,19.318 12.724,19.071 12.724,18.87C12.724,18.866 12.775,18.436 12.67,18.439C12.467,18.445 12.371,19.056 12.293,19.194C12.187,19.38 12.108,19.467 12.023,19.679C11.993,19.754 11.915,19.895 11.915,19.895C11.915,19.895 11.875,19.68 11.861,19.571C11.836,19.365 11.971,18.765 11.807,18.601C11.762,18.555 11.729,18.705 11.7,18.763C11.567,19.029 11.322,19.571 11.322,19.571C11.322,19.571 11.268,19.357 11.268,19.248C11.268,19.14 11.228,18.56 11.16,18.493C11.085,18.418 10.914,19.053 10.891,19.14C10.87,19.217 10.783,19.436 10.783,19.356C10.783,19.22 10.779,18.982 10.675,19.086C10.558,19.203 10.815,19.441 10.837,19.463C10.888,19.514 10.837,19.751 10.837,19.679C10.837,19.414 10.639,19.157 10.46,18.978C10.378,18.897 10.19,18.763 10.19,18.763C10.19,18.763 10.46,18.983 10.614,19.06C10.905,19.205 11.157,19.352 11.468,19.455C12.555,19.818 13.607,20.45 14.557,21.081C14.932,21.33 15.343,21.485 15.689,21.782C15.718,21.806 15.96,21.996 15.905,22.051C15.782,22.174 14.911,21.611 14.827,21.566C13.906,21.07 12.968,20.638 11.969,20.326C11.86,20.292 11.252,19.984 11.107,20.056C11.069,20.075 11.196,20.302 11.207,20.325C11.342,20.594 11.629,20.741 11.785,21C11.993,21.347 12.326,21.533 12.562,21.836C12.748,22.074 12.889,22.486 13.101,22.698C13.211,22.808 12.924,22.445 12.832,22.321C12.685,22.124 12.578,21.939 12.454,21.728C12.081,21.091 11.643,20.495 11.214,19.895C11.016,19.616 11.068,19.611 10.891,19.302C10.853,19.235 10.729,19.14 10.729,19.14C10.729,19.14 10.842,19.243 10.891,19.302C11.103,19.556 11.099,19.539 11.322,19.787C11.748,20.26 12.186,20.717 12.616,21.189C13.017,21.627 13.615,22.19 13.91,22.698C13.967,22.796 14.219,23.345 14.395,23.345C14.436,23.345 14.359,23.273 14.341,23.237C14.273,23.1 14.243,22.946 14.18,22.806C14.054,22.529 13.957,22.376 13.802,22.105C13.527,21.623 13.282,21.186 12.94,20.757C12.899,20.706 12.742,20.326 12.67,20.326C12.613,20.326 12.691,20.442 12.724,20.488C12.791,20.581 12.864,20.67 12.94,20.757C13.081,20.92 13.192,21.067 13.317,21.243C13.739,21.837 14.249,22.358 14.719,22.914C14.992,23.237 14.991,23.207 15.258,23.507C15.377,23.641 15.582,23.938 15.582,23.938L15.582,23.669C15.582,23.459 15.565,23.283 15.455,23.099C15.133,22.563 14.621,22.146 14.257,21.635C14.142,21.475 14.031,21.431 13.91,21.297C13.902,21.288 13.641,20.995 13.641,21.027C13.641,21.096 14.092,21.392 14.156,21.43C14.616,21.706 15.068,22.225 15.474,22.591C15.835,22.916 16.153,23.349 16.552,23.615C16.561,23.621 16.878,23.908 16.929,23.831C17.029,23.681 16.983,23.398 16.983,23.237C16.983,22.734 17.02,22.225 16.929,21.728C16.91,21.622 16.717,21.291 16.768,21.189C16.947,20.83 17.914,20.671 18.223,20.542C18.363,20.484 18.744,20.164 18.924,20.164C19.061,20.164 18.838,20.428 18.763,20.542C18.565,20.838 18.32,21.11 18.116,21.404C17.75,21.93 17.415,22.448 17.037,22.968C16.946,23.093 16.922,23.345 16.768,23.345C16.689,23.345 16.714,22.812 16.714,22.806C16.714,22.367 16.719,21.949 16.768,21.512C16.797,21.244 16.792,20.972 16.822,20.703C16.83,20.63 16.875,20.414 16.875,20.488L16.875,22.267C16.875,22.478 16.832,23.336 17.091,22.752C17.137,22.648 17.173,22.54 17.199,22.429C17.338,21.825 17.46,21.247 17.63,20.65C17.68,20.475 17.792,20.294 17.792,20.11C17.792,20.021 17.8,20.29 17.792,20.38C17.78,20.524 17.762,20.668 17.738,20.811C17.623,21.503 17.576,21.471 17.415,22.159C17.047,23.721 16.572,25.242 16.175,26.796C16.075,27.186 15.825,27.546 15.761,27.934C15.755,27.966 15.774,28.252 15.689,28.252C15.599,28.252 15.689,28.072 15.689,27.982C15.689,27.575 15.705,27.593 15.743,27.173C15.814,26.395 15.993,25.669 16.12,24.902C16.17,24.604 16.262,24.337 16.336,24.046C16.377,23.886 16.444,23.561 16.444,23.561C16.444,23.561 16.43,23.888 16.39,24.046C16.308,24.374 16.303,24.354 16.236,24.69C16.106,25.341 15.783,26.049 15.582,26.688C15.446,27.117 15.409,27.081 15.258,27.497C15.213,27.62 15.15,28.005 15.15,27.874C15.15,27.109 15.277,26.416 15.42,25.664C15.469,25.406 15.554,24.958 15.635,24.693C15.676,24.562 15.736,24.193 15.797,24.316C15.945,24.612 15.549,25.211 15.474,25.502C15.25,26.359 15.032,27.186 14.773,28.036C14.649,28.442 14.463,28.817 14.341,29.222C14.309,29.331 14.261,29.435 14.234,29.546C14.216,29.615 14.234,29.833 14.234,29.761C14.234,29.113 14.364,28.463 14.449,27.82C14.485,27.552 14.503,27.012 14.503,27.012C14.503,27.012 14.516,27.336 14.503,27.497C14.477,27.839 14.442,28.181 14.395,28.521C14.292,29.278 14.137,30.031 14.018,30.786C13.954,31.19 13.98,31.175 13.91,31.594C13.895,31.687 13.854,31.922 13.802,32.026C13.784,32.062 13.748,32.174 13.748,32.134C13.748,31.168 13.875,30.352 14.18,29.438C14.246,29.238 14.185,28.845 14.395,28.845C14.557,28.845 14.395,29.168 14.395,29.33L14.395,31.325C14.395,31.411 14.446,31.76 14.341,31.864C14.305,31.901 14.336,31.76 14.336,31.708C14.336,31.574 14.342,31.577 14.39,31.433C14.462,31.216 14.526,30.997 14.611,30.786C14.827,30.245 15.078,29.702 15.312,29.168C15.376,29.022 15.538,28.712 15.635,28.575C15.673,28.522 15.743,28.349 15.743,28.413C15.743,28.916 15.695,29.323 15.582,29.815C15.559,29.912 15.552,30.182 15.474,30.3C15.429,30.367 15.317,30.58 15.366,30.516C15.459,30.395 15.415,29.958 15.466,29.781C15.643,29.163 16.038,28.526 16.282,27.928C16.406,27.627 16.554,27.168 16.66,26.85C16.696,26.742 16.732,26.634 16.768,26.526C16.791,26.456 16.822,26.237 16.822,26.311C16.822,27.415 16.387,28.571 16.013,29.599C15.838,30.081 15.843,30.062 15.689,30.57C15.646,30.712 15.582,31.001 15.582,31.001C15.582,31.001 15.608,30.712 15.635,30.57C15.664,30.423 15.696,30.227 15.743,30.085C15.901,29.607 16.153,29.149 16.336,28.683C16.849,27.383 17.371,26.185 18.062,24.963C18.088,24.916 18.563,23.938 18.763,23.938C18.834,23.938 18.763,24.082 18.763,24.154C18.763,24.543 18.757,24.518 18.655,24.909C18.408,25.855 18.184,26.796 17.896,27.731C17.793,28.067 17.761,28.397 17.684,28.737C17.655,28.864 17.611,28.988 17.576,29.114C17.552,29.203 17.522,29.475 17.522,29.384C17.522,28.898 17.838,28.208 18.008,27.766C18.469,26.566 18.959,25.366 19.625,24.262C19.767,24.027 19.912,23.794 20.056,23.561C20.193,23.341 20.229,22.914 20.488,22.914C20.578,22.914 20.503,23.095 20.488,23.184C20.464,23.329 20.235,24.142 20.218,24.208C20.058,24.847 19.855,25.461 19.679,26.095C19.574,26.475 19.607,26.466 19.463,26.85C19.437,26.919 19.409,27.065 19.409,27.065C19.409,27.065 19.481,26.886 19.517,26.796C19.571,26.663 19.701,26.107 19.733,25.987C19.888,25.397 20.029,24.803 20.164,24.208C20.209,24.012 20.239,23.813 20.272,23.615C20.293,23.49 20.301,23.362 20.326,23.237C20.341,23.165 20.38,22.948 20.38,23.022C20.38,23.426 19.841,24.035 19.625,24.37C18.946,25.424 18.246,26.72 17.361,27.605C17.304,27.661 17.444,27.465 17.469,27.389C17.534,27.185 17.538,27.034 17.63,26.828C17.817,26.407 17.869,25.95 18.035,25.519C18.44,24.466 18.867,23.332 19.122,22.227C19.195,21.908 19.409,21.49 19.409,21.189C19.409,21.135 19.424,21.299 19.409,21.35C19.383,21.444 19.339,21.531 19.302,21.62C19.123,22.049 19.153,22.046 18.978,22.483C18.666,23.262 18.364,24.042 18.008,24.801C17.894,25.044 17.712,25.452 17.63,25.718C17.568,25.919 17.611,25.917 17.522,26.095C17.504,26.131 17.497,26.231 17.469,26.203C17.381,26.116 17.493,25.573 17.514,25.48C17.669,24.785 17.827,24.088 18.008,23.399C18.109,23.016 18.075,23.023 18.169,22.644C18.183,22.589 18.223,22.483 18.223,22.483L18.223,23.345C18.223,23.808 18.213,24.292 18.116,24.747C18.092,24.858 18.044,24.963 18.008,25.071C17.977,25.162 17.968,25.409 17.9,25.34C17.85,25.29 18.003,24.713 18.008,24.693C18.112,24.209 18.25,23.727 18.331,23.237C18.399,22.832 18.357,22.84 18.439,22.429C18.461,22.317 18.547,21.992 18.547,22.105C18.547,22.766 17.884,23.502 17.63,24.1C17.471,24.476 17.49,24.468 17.361,24.855C17.33,24.947 17.291,25.036 17.253,25.125C17.231,25.177 17.199,25.343 17.199,25.286L17.199,24.747C17.199,24.655 17.253,24.386 17.253,24.478C17.253,24.801 17.25,25.125 17.253,25.448C17.26,26.272 17.121,27.006 16.983,27.82C16.832,28.717 16.604,29.615 16.498,30.516C16.45,30.927 16.476,30.909 16.444,31.325C16.425,31.571 16.39,31.542 16.39,31.81C16.39,31.864 16.39,32.026 16.39,31.972C16.39,31.105 16.563,30.25 16.606,29.384C16.63,28.909 16.624,28.933 16.66,28.467C16.671,28.324 16.66,28.036 16.66,28.036L16.66,28.845C16.746,28.845 16.811,28.597 16.822,28.575C17.008,28.202 17.238,27.843 17.469,27.497C17.501,27.449 17.678,27.06 17.792,27.173C17.906,27.288 17.792,27.497 17.792,27.659C17.792,28.415 17.616,29.077 17.469,29.815C17.436,29.978 17.393,30.138 17.361,30.3C17.339,30.408 17.333,30.518 17.307,30.624C17.293,30.679 17.253,30.842 17.253,30.786C17.253,30.093 17.321,29.347 17.684,28.737C17.816,28.515 17.942,28.317 18.062,28.09C18.134,27.953 18.331,27.712 18.331,27.712C18.331,27.712 18.345,28.001 18.331,28.144C18.279,28.667 18.131,29.059 17.954,29.546C17.89,29.722 17.792,30.085 17.792,30.085C17.792,30.085 17.928,29.864 18.008,29.761C18.325,29.353 18.342,29.394 18.709,29.006C19.43,28.242 20.132,27.333 21.067,26.813C21.173,26.754 21.448,26.472 21.566,26.472C21.623,26.472 21.533,26.581 21.512,26.634C21.419,26.868 21.425,26.852 21.297,27.065C21.063,27.455 20.814,27.835 20.542,28.198C20.419,28.362 20.164,28.683 20.164,28.683C20.164,28.683 20.224,28.532 20.272,28.467C20.419,28.272 20.557,28.07 20.703,27.874C20.988,27.495 21.285,27.13 21.62,26.796C21.71,26.706 21.8,26.616 21.89,26.526C21.961,26.454 22.123,26.211 22.105,26.311C22.064,26.545 21.694,26.661 21.535,26.788C20.82,27.36 20.141,27.781 19.302,28.198C19.073,28.311 18.494,28.842 18.223,28.737C18.191,28.724 18.598,28.052 18.655,27.982C18.927,27.644 19.19,27.284 19.385,26.895C19.484,26.696 19.787,26.365 19.787,26.365C19.787,26.365 19.675,26.468 19.625,26.526C19.468,26.71 19.295,26.88 19.14,27.065C18.842,27.423 18.595,27.817 18.331,28.198C18.266,28.292 18.19,28.38 18.116,28.467C18.066,28.525 17.954,28.705 17.954,28.629C17.954,28.343 18.507,27.937 18.655,27.766C19.437,26.863 20.135,25.874 21.081,25.125C21.308,24.945 21.874,24.424 22.159,24.424C22.233,24.424 22.145,24.576 22.105,24.639C21.877,25.005 21.557,25.323 21.297,25.664C20.793,26.322 20.291,26.937 19.733,27.551C19.622,27.673 19.57,27.969 19.409,27.928C19.318,27.905 19.506,27.576 19.517,27.551C19.621,27.323 19.818,26.838 19.895,26.634C20.136,25.991 20.476,25.458 20.811,24.855C20.834,24.815 21.183,24.046 21.243,24.046C21.334,24.046 21.223,24.231 21.189,24.316C21.144,24.428 21.092,24.538 21.027,24.639C20.629,25.259 20.17,25.869 19.679,26.418C19.639,26.463 19.418,26.751 19.409,26.742C19.353,26.685 19.477,26.596 19.517,26.526C19.715,26.18 19.923,25.878 20.164,25.556C20.542,25.052 20.953,24.575 21.297,24.046C21.583,23.606 21.549,23.609 21.89,23.184C21.961,23.094 22.105,22.914 22.105,22.914C22.105,22.914 21.953,23.012 21.89,23.076C21.687,23.278 21.559,23.486 21.404,23.723C21.099,24.189 20.745,24.609 20.434,25.071C20.209,25.404 20.194,25.369 19.949,25.664C19.907,25.713 19.841,25.89 19.841,25.825C19.841,25.421 20.092,24.941 20.272,24.585C20.68,23.781 21.153,22.986 21.512,22.159C21.58,22.004 21.723,21.081 21.89,21.081C21.946,21.081 21.855,21.189 21.836,21.243C21.68,21.671 21.67,21.643 21.512,22.051C21.33,22.523 21.089,22.978 20.919,23.453C20.802,23.78 20.852,23.768 20.757,24.1C20.735,24.177 20.65,24.316 20.65,24.316C20.65,24.316 20.897,23.918 21.027,23.723C21.313,23.293 21.266,23.292 21.512,22.86C22.045,21.927 22.686,21.065 23.184,20.11C23.332,19.825 23.459,19.529 23.615,19.248C23.654,19.177 23.723,19.032 23.723,19.032C23.723,19.032 23.541,19.318 23.453,19.463C23.217,19.854 23.02,20.307 22.806,20.703C22.511,21.25 22.158,21.74 21.836,22.267C21.492,22.828 21.173,23.577 20.703,24.046C20.651,24.099 20.74,23.902 20.757,23.831C20.809,23.622 20.806,23.568 20.941,23.379C21.223,22.985 21.358,22.486 21.566,22.051C21.888,21.377 22.287,20.761 22.644,20.11C22.836,19.761 22.947,19.284 23.184,18.978C23.219,18.932 23.172,19.103 23.131,19.143C22.953,19.321 22.992,19.319 22.86,19.517C22.8,19.607 22.321,20.326 22.321,20.326C21.856,20.984 21.42,21.651 20.973,22.321C20.865,22.483 20.771,22.654 20.65,22.806C20.609,22.857 20.542,23.033 20.542,22.968C20.542,22.507 20.514,21.999 20.677,21.566C20.76,21.343 20.811,20.865 20.811,20.865L20.811,21.35C20.811,21.697 20.756,22.032 20.703,22.375C20.687,22.483 20.662,22.59 20.65,22.698C20.64,22.788 20.586,23.031 20.65,22.968C21.298,22.319 21.715,21.31 22.375,20.65C22.426,20.599 22.387,20.794 22.375,20.865C22.353,20.998 22.265,21.125 22.213,21.243C22.035,21.643 21.875,22.099 21.836,22.537C21.834,22.55 21.74,23.124 21.836,23.076C22.665,22.661 23.163,21.402 23.561,20.65C23.677,20.431 23.81,20.221 23.92,19.999C23.933,19.974 24.006,19.625 24.046,19.625C24.1,19.625 24.046,19.733 24.046,19.787C24.046,20.121 24.057,20.097 23.992,20.488C23.865,21.249 23.642,21.944 23.345,22.644C23.318,22.709 23.231,23.237 23.184,23.237C22.996,23.237 23.26,22.865 23.345,22.698C23.582,22.234 23.752,21.745 24.015,21.295C24.489,20.481 24.949,19.69 25.502,18.924C25.668,18.694 25.703,18.235 25.987,18.223C26.203,18.214 26.011,18.668 25.933,18.87C25.659,19.583 25.33,20.293 25.089,21.016C25.077,21.053 24.882,21.674 24.855,21.674C24.801,21.674 24.838,21.563 24.855,21.512C24.918,21.322 25.029,21.15 25.125,20.973C25.424,20.42 25.644,19.797 25.825,19.194C25.874,19.031 25.937,18.872 25.987,18.709C26.025,18.587 26.168,18.331 26.041,18.331C25.861,18.331 25.821,18.615 25.718,18.763C25.499,19.075 25.314,19.382 25.071,19.679C24.897,19.892 24.889,19.861 24.693,20.056C24.665,20.085 24.668,20.193 24.639,20.164C24.452,19.977 24.901,19.017 24.963,18.816C25.008,18.667 24.981,18.641 25.017,18.493C25.038,18.404 25.071,18.132 25.071,18.223C25.071,18.635 24.771,18.875 24.631,19.225C24.557,19.41 24.424,19.787 24.424,19.787L24.424,19.463C24.424,19.254 24.394,19.024 24.424,18.816C24.444,18.673 24.478,18.385 24.478,18.385C24.478,18.385 24.379,18.712 24.316,18.87C24.234,19.074 24.177,19.326 24.1,19.517C24.055,19.629 23.938,19.961 23.938,19.841C23.938,19.44 23.953,19.05 23.992,18.655C24.016,18.422 24.045,18.444 24.1,18.223L24.1,18.116C24.1,18.757 23.86,19.249 23.615,19.841C23.039,21.233 22.396,22.592 21.836,23.992C21.576,24.642 21.233,25.334 21.047,26.017C20.95,26.371 20.966,26.351 20.865,26.688C20.844,26.759 20.811,26.978 20.811,26.904C20.811,26.661 20.953,26.425 21.027,26.203C21.317,25.331 21.674,24.478 21.997,23.615C22.147,23.215 22.32,22.824 22.483,22.429C22.535,22.302 22.592,22.178 22.644,22.051C22.685,21.955 22.732,21.708 22.806,21.782C22.969,21.945 22.624,22.685 22.557,22.84C22.374,23.266 22.354,23.765 22.213,24.208C22.022,24.81 21.728,25.451 21.728,26.095C21.728,26.167 21.728,25.951 21.728,25.879C21.728,25.612 21.715,25.515 21.782,25.232C21.978,24.398 22.286,23.616 22.537,22.806C22.633,22.493 22.666,22.153 22.752,21.836C22.776,21.747 22.806,21.474 22.806,21.566C22.806,21.977 22.83,22.396 22.806,22.806C22.775,23.331 22.644,23.844 22.644,24.37C22.644,24.444 22.668,24.222 22.698,24.154C22.868,23.773 22.898,23.81 23.076,23.453C23.35,22.904 23.621,22.338 23.884,21.782C23.905,21.738 24.194,20.861 24.37,20.865C24.586,20.871 24.361,21.301 24.316,21.512C24.166,22.209 23.936,22.884 23.723,23.561C23.618,23.894 23.609,24.27 23.453,24.583C23.444,24.601 23.318,25.043 23.291,24.963C23.097,24.38 23.794,23.248 23.992,22.752C24.106,22.467 24.202,22.175 24.316,21.89C24.343,21.821 24.37,21.6 24.37,21.674C24.37,22.156 24.309,22.55 24.208,23.022C24.158,23.253 24.186,23.745 23.992,23.938C23.912,24.019 24.054,23.719 24.1,23.615C24.24,23.3 24.334,22.999 24.443,22.672C24.652,22.047 24.946,21.43 25.178,20.811C25.221,20.698 25.295,20.6 25.34,20.488C25.376,20.398 25.351,20.218 25.448,20.218C25.629,20.218 25.426,20.58 25.394,20.757C25.308,21.23 25.241,21.694 25.125,22.159C25.066,22.393 25.071,22.375 25.071,22.591C25.071,22.626 25.071,22.734 25.071,22.698C25.071,21.88 25.41,21.104 25.772,20.38C25.836,20.25 25.927,20.134 25.987,20.003C26.037,19.893 26.064,19.594 26.149,19.679C26.176,19.707 26.151,20.095 26.149,20.11C26.092,20.623 25.913,21.179 25.772,21.674C25.74,21.783 25.696,21.889 25.664,21.997C25.632,22.102 25.61,22.43 25.61,22.321C25.61,21.325 26.183,20.384 26.442,19.434C26.529,19.117 26.676,18.849 26.796,18.547C26.838,18.441 26.868,18.331 26.904,18.223C26.927,18.153 26.958,17.934 26.958,18.008C26.958,18.863 26.727,19.612 26.526,20.434C26.466,20.679 26.439,20.997 26.418,21.243C26.411,21.332 26.431,21.423 26.418,21.512C26.41,21.568 26.365,21.731 26.365,21.674C26.365,20.989 26.476,20.478 26.688,19.841C26.781,19.562 26.766,19.577 26.904,19.302C26.929,19.251 26.958,19.083 26.958,19.14C26.958,19.845 26.874,20.542 26.796,21.243C26.77,21.478 26.688,21.944 26.688,21.944C26.688,21.944 26.812,21.434 26.904,21.189C27.094,20.681 27.324,20.196 27.497,19.679C27.652,19.213 27.633,19.231 27.82,18.763C27.856,18.673 27.86,18.425 27.928,18.493C28.065,18.63 27.928,19.577 27.928,19.787C27.928,20.021 27.874,20.488 27.874,20.488C27.874,20.488 27.859,20.271 27.874,20.164C27.917,19.865 27.983,19.903 28.09,19.625C28.227,19.269 28.575,18.706 28.575,18.331C28.575,18.277 28.575,18.439 28.575,18.493L28.575,20.596C28.575,20.596 28.558,20.245 28.621,20.087C28.785,19.677 28.964,19.287 29.114,18.87C29.143,18.789 29.477,18.263 29.492,18.277C29.516,18.301 29.492,18.588 29.492,18.601L29.492,19.625C29.492,19.787 29.33,20.11 29.492,20.11C29.637,20.11 29.656,19.869 29.707,19.733C29.811,19.456 29.982,18.985 30.139,18.763C30.197,18.679 30.193,19.12 30.193,19.14L30.193,19.787C30.193,19.913 30.104,20.075 30.193,20.164C30.194,20.165 30.348,20.02 30.354,20.003C30.455,19.73 30.51,19.146 30.732,18.924C30.808,18.848 30.732,19.14 30.732,19.248L30.732,20.488C30.732,20.488 30.808,20.165 30.84,20.003C30.895,19.72 31.043,19.627 31.217,19.409C31.236,19.385 31.309,19.124 31.379,19.194C31.581,19.396 31.321,20.441 31.217,20.65C31.134,20.815 30.947,21.135 30.947,21.135C30.947,21.135 30.961,20.878 31.001,20.757C31.078,20.528 31.161,20.384 31.271,20.164C31.34,20.026 31.471,19.649 31.54,19.787C31.839,20.384 31.227,20.957 31.005,21.401C30.893,21.625 30.755,21.693 30.57,21.782C30.489,21.821 30.354,22.033 30.354,21.944C30.354,21.592 30.382,21.309 30.516,20.973C30.604,20.754 30.629,20.787 30.678,20.542C30.686,20.502 30.768,20.416 30.732,20.434C30.545,20.527 30.241,21.032 30.085,21.189C29.64,21.633 29.161,22.039 28.629,22.375C28.156,22.674 28.149,22.633 27.659,22.914C27.433,23.043 27.012,23.345 27.012,23.345C27.012,23.345 27.063,23.121 27.119,23.022C27.263,22.771 27.359,22.505 27.535,22.271C28.037,21.601 28.736,21.06 29.384,20.542C29.533,20.422 29.813,20.247 29.977,20.11C30.027,20.069 30.093,19.957 30.139,20.003C30.263,20.127 29.771,20.745 29.661,20.855C28.943,21.573 28.524,22.491 27.548,22.979C27.467,23.02 26.767,23.424 26.742,23.399C26.675,23.332 26.84,23.134 26.874,23.1C27.145,22.829 27.413,22.559 27.685,22.287C28.433,21.539 29.506,20.967 30.408,20.434C30.846,20.175 30.85,20.213 31.325,20.003C31.413,19.963 31.594,19.798 31.594,19.895C31.594,19.921 31.115,20.493 31.036,20.573C30.401,21.208 29.614,21.67 28.873,22.164C28.521,22.398 28.1,22.586 27.712,22.752C27.509,22.84 27.502,22.788 27.312,22.915C27.3,22.923 27.065,23.041 27.065,22.968C27.067,22.822 27.513,22.424 27.605,22.321C28.124,21.739 28.704,21.173 29.33,20.703L30.3,20.056C30.404,19.994 30.516,19.949 30.624,19.895C30.675,19.869 30.786,19.784 30.786,19.841C30.786,19.942 30.642,19.985 30.57,20.056C30.292,20.335 29.996,20.599 29.707,20.865C28.855,21.652 27.848,22.228 26.85,22.806C26.59,22.957 26.106,23.345 25.772,23.345C25.715,23.345 25.796,23.232 25.825,23.184C25.921,23.025 26,22.857 26.095,22.698C26.32,22.323 26.581,21.912 26.85,21.566C26.879,21.528 27.289,21.097 27.335,21.189C27.577,21.673 26.523,22.427 26.307,22.679C26.138,22.876 25.935,22.958 25.756,23.137C25.688,23.205 25.556,23.442 25.556,23.345C25.556,23.197 25.981,22.866 26.041,22.806C26.403,22.444 26.798,22.13 27.173,21.782C27.476,21.5 27.444,21.484 27.766,21.243C27.831,21.194 27.982,21.054 27.982,21.135C27.982,21.199 27.654,21.469 27.605,21.512C27.141,21.924 26.743,22.371 26.257,22.752L25.61,23.291C25.5,23.379 25.286,23.561 25.286,23.561C25.286,23.561 25.396,23.418 25.448,23.345C25.576,23.167 25.694,22.982 25.825,22.806C26.221,22.279 26.639,21.796 27.119,21.35C27.144,21.327 27.595,20.804 27.712,20.865C27.819,20.921 27.639,21.441 27.623,21.477C27.375,22.035 26.992,22.481 26.634,22.968C25.805,24.096 24.87,25.05 23.777,25.933C23.388,26.247 22.996,26.557 22.591,26.85C22.225,27.114 22.217,27.069 21.836,27.281C21.757,27.325 21.62,27.443 21.62,27.443C21.62,27.443 21.692,27.14 21.777,27.014C21.985,26.7 21.978,26.716 22.159,26.365C22.563,25.58 22.974,24.922 23.507,24.208C23.652,24.014 23.739,23.805 23.913,23.631C24.001,23.543 24.154,23.221 24.154,23.345C24.154,23.724 23.722,24.097 23.507,24.37C23.131,24.849 22.776,25.374 22.344,25.806C22.094,26.056 22.119,26.056 21.89,26.311C21.779,26.434 21.566,26.688 21.566,26.688C21.566,26.688 21.689,26.455 21.782,26.365C22.078,26.075 22.056,26.085 22.321,25.772C22.771,25.239 23.309,24.714 23.862,24.283C23.933,24.228 24.561,23.577 24.671,23.687C24.851,23.867 24.331,24.432 24.262,24.531C23.982,24.935 23.651,25.281 23.345,25.664C23.177,25.874 23.017,26.091 22.86,26.311C22.813,26.376 22.752,26.526 22.752,26.526C22.752,26.526 22.904,26.081 23.022,25.879C23.244,25.498 23.491,25.123 23.723,24.747C23.752,24.7 24.163,23.884 24.262,23.884C24.357,23.884 24.188,24.515 24.135,24.585C23.848,24.968 23.61,25.374 23.345,25.772C23.336,25.786 23.085,26.105 23.13,26.149C23.308,26.327 23.732,25.939 23.831,25.879C24.603,25.41 25.401,24.987 26.149,24.478C26.539,24.211 26.688,24.118 27.012,23.831C27.079,23.771 27.227,23.579 27.227,23.669C27.227,23.758 26.997,24.049 26.958,24.1C26.623,24.531 26.363,24.938 25.933,25.286C25.635,25.528 25.366,25.799 25.071,26.041C24.843,26.228 24.823,26.177 24.585,26.365C24.543,26.398 23.967,26.96 23.938,26.904C23.83,26.687 24.109,26.344 24.208,26.203C24.612,25.626 25.057,25.084 25.556,24.585C25.621,24.52 25.997,24.046 26.149,24.046C26.171,24.046 25.834,24.943 25.825,24.963C25.437,25.851 24.909,26.71 24.424,27.551C24.255,27.843 24.058,28.124 23.884,28.413C23.866,28.444 23.711,28.779 23.669,28.737C23.515,28.583 23.836,28.335 23.938,28.144C24.32,27.427 24.758,26.812 25.286,26.203C25.378,26.097 25.468,25.989 25.556,25.879C25.635,25.78 25.712,25.552 25.825,25.61C25.886,25.641 25.61,26.256 25.61,26.257C25.389,26.831 25.169,27.404 24.963,27.982C24.855,28.284 24.875,28.315 24.801,28.575C24.781,28.646 24.747,28.865 24.747,28.791C24.747,28.515 24.869,28.299 24.963,28.036C25.014,27.891 25.069,27.748 25.125,27.605C25.288,27.184 25.278,27.194 25.479,26.792C25.694,26.362 25.773,25.875 25.987,25.448C26.019,25.384 25.987,25.592 25.987,25.664L25.987,26.365C25.987,27.196 25.96,28.029 25.772,28.845C25.724,29.05 25.766,29.438 25.556,29.438C25.458,29.438 25.675,28.62 25.694,28.57C25.947,27.895 26.13,27.068 26.311,26.365C26.418,25.946 26.688,25.456 26.688,25.017C26.688,24.945 26.688,25.16 26.688,25.232L26.688,25.502C26.688,25.965 26.684,25.946 26.634,26.418C26.535,27.357 26.257,28.334 26.257,29.276C26.257,29.348 26.248,29.132 26.257,29.06C26.286,28.829 26.307,28.851 26.307,28.631C26.307,28.164 26.58,27.693 26.58,27.227C26.58,27.155 26.58,27.371 26.58,27.443C26.58,27.799 26.59,27.785 26.526,28.144C26.408,28.813 26.293,29.464 26.203,30.139C26.172,30.373 26.095,30.84 26.095,30.84C26.095,30.84 26.122,30.371 26.149,30.139C26.187,29.815 26.214,29.491 26.257,29.168C26.271,29.06 26.287,28.951 26.311,28.845C26.331,28.755 26.365,28.483 26.365,28.575L26.365,31.648C26.365,31.145 26.546,30.602 26.58,30.085C26.602,29.756 26.593,29.768 26.634,29.438C26.645,29.349 26.634,29.168 26.634,29.168C26.634,29.168 26.609,29.601 26.58,29.815C26.501,30.411 26.39,30.997 26.311,31.594C26.274,31.87 26.294,31.86 26.203,32.134C26.179,32.204 26.149,32.349 26.149,32.349C26.149,32.349 26.17,31.916 26.203,31.702C26.263,31.309 26.336,30.913 26.365,30.516C26.371,30.426 26.353,30.336 26.365,30.246C26.374,30.173 26.418,29.957 26.418,30.031C26.418,30.162 26.378,31.242 26.526,31.217C26.738,31.182 26.93,30.093 26.958,29.869C26.975,29.726 26.958,29.438 26.958,29.438L26.958,30.193C26.958,30.543 26.881,30.87 26.85,31.217C26.834,31.396 26.85,31.756 26.85,31.756L26.85,31.163C26.85,30.624 26.924,30.085 26.958,29.546C26.974,29.276 27.012,28.737 27.012,28.737L27.012,30.678C27.012,30.759 26.969,31.271 27.065,31.271C27.164,31.271 27.224,30.908 27.227,30.893C27.291,30.606 27.348,30.32 27.389,30.031C27.392,30.009 27.355,29.653 27.443,29.653C27.623,29.653 27.443,30.013 27.443,30.193L27.443,31.648C27.443,31.81 27.281,32.134 27.443,32.134C27.547,32.134 27.497,31.809 27.497,31.756L27.497,30.84C27.497,30.839 27.531,30.442 27.497,30.408C27.4,30.311 27.379,30.656 27.335,30.786C27.223,31.115 27.139,31.453 26.958,31.756C26.901,31.851 26.795,32.132 26.688,31.972C26.3,31.39 26.221,30.366 26.041,29.707C25.948,29.367 25.869,29.022 25.772,28.683C25.725,28.519 25.61,28.198 25.61,28.198L25.61,28.521C25.61,28.778 25.652,29.077 25.61,29.33C25.607,29.348 25.524,29.751 25.502,29.707C25.36,29.424 25.338,28.942 25.286,28.629C25.242,28.361 25.178,27.82 25.178,27.82C25.178,27.82 25.122,28.359 25.125,28.629C25.129,29.089 25.02,29.521 24.963,29.977C24.921,30.308 24.909,30.286 24.909,30.624C24.909,30.714 24.909,30.983 24.909,30.893C24.909,29.478 25.244,28.171 25.398,26.784C25.453,26.292 25.592,25.821 25.641,25.331C25.662,25.118 25.718,24.693 25.718,24.693L25.718,29.492C25.718,29.546 25.718,29.384 25.718,29.33L25.718,28.899C25.718,28.394 25.646,27.924 25.502,27.443C25.469,27.333 25.335,27.069 25.286,27.173C25.007,27.767 24.812,28.521 24.639,29.168C24.552,29.495 24.563,29.473 24.478,29.815C24.454,29.909 24.438,30.153 24.37,30.085C24.33,30.045 24.37,29.518 24.37,29.492C24.37,29.061 24.322,28.62 24.262,28.198C24.249,28.109 24.325,27.992 24.262,27.928C24.172,27.838 24.208,28.178 24.208,28.306L24.208,29.222C24.208,29.294 24.28,29.438 24.208,29.438C24.101,29.438 24.154,28.953 24.154,28.953C24.154,28.507 24.355,27.521 24.154,27.119C24.125,27.061 24.067,27.22 24.046,27.281C23.954,27.558 24.02,27.548 23.992,27.82C23.953,28.211 23.902,28.616 23.831,29.006C23.795,29.2 23.777,29.185 23.777,29.384C23.777,29.42 23.777,29.528 23.777,29.492C23.777,28.752 23.831,28.018 23.831,27.281L23.831,25.933L23.831,27.173C23.831,27.915 23.751,28.647 23.669,29.384C23.627,29.764 23.61,29.743 23.561,30.139C23.55,30.228 23.561,30.408 23.561,30.408L23.561,29.761C23.561,29.245 23.571,29.268 23.615,28.737C23.687,27.87 23.831,26.959 23.831,26.095C23.831,26.023 23.831,26.239 23.831,26.311L23.831,26.742C23.801,27.036 23.701,27.311 23.669,27.605C23.652,27.752 23.561,28.036 23.561,28.036L23.561,27.443C23.561,27.02 23.523,26.62 23.453,26.203C23.423,26.025 23.527,25.791 23.399,25.664C23.339,25.604 23.184,26.526 23.184,26.526C23.084,27.023 22.895,27.48 22.806,27.982C22.765,28.215 22.728,28.448 22.698,28.683C22.689,28.754 22.698,28.899 22.698,28.899L22.698,26.904C22.698,26.891 22.722,26.604 22.698,26.58C22.578,26.46 22.57,26.898 22.537,27.065C22.504,27.228 22.456,27.387 22.429,27.551C22.329,28.151 22.213,28.83 22.213,29.438C22.213,29.492 22.213,29.33 22.213,29.276L22.213,27.281C22.213,27.269 22.247,26.996 22.159,26.958C22.119,26.94 22.068,27.25 22.054,27.278C21.961,27.463 21.886,27.727 21.836,27.928C21.798,28.077 21.826,28.065 21.782,28.198L21.782,28.306L21.782,26.796C21.782,26.724 21.833,26.529 21.782,26.58C21.596,26.766 21.619,27.503 21.566,27.766C21.531,27.943 21.512,28.306 21.512,28.306L21.512,26.311C21.399,26.311 21.427,26.523 21.404,26.634C21.301,27.149 21.263,27.678 21.189,28.198C21.173,28.306 21.146,28.412 21.135,28.521C21.124,28.628 21.135,28.953 21.135,28.845L21.135,25.879C21.135,25.609 21.23,25.032 21.135,24.747C21.089,24.611 20.322,24.698 20.218,24.693C19.77,24.675 19.499,25.035 19.194,25.34C18.744,25.79 18.258,26.201 17.792,26.634C17.539,26.869 17.324,27.09 17.037,27.281C16.95,27.339 16.842,27.517 16.768,27.443C16.551,27.226 16.768,26.828 16.822,26.526C16.971,25.681 17.324,24.717 17.738,23.957C17.947,23.574 17.938,23.59 18.116,23.184C18.17,23.058 18.211,22.926 18.277,22.806C18.314,22.74 18.439,22.568 18.439,22.644C18.439,22.906 18.205,23.276 18.116,23.507C17.831,24.242 17.401,24.876 17.083,25.591C16.959,25.87 16.82,26.108 16.66,26.365C16.566,26.515 16.444,26.85 16.444,26.85C16.444,26.85 16.459,26.522 16.498,26.365C16.562,26.109 16.594,25.866 16.66,25.61C16.692,25.483 16.675,25.14 16.768,25.232C16.891,25.356 16.703,25.921 16.66,26.041C16.311,27.007 16.045,27.993 15.689,28.953C15.609,29.17 15.384,29.78 15.312,30.031C15.287,30.119 15.28,30.211 15.258,30.3C15.24,30.372 15.204,30.59 15.204,30.516C15.204,30.024 15.36,29.557 15.582,29.114C15.661,28.956 15.797,28.629 15.797,28.629C15.797,28.629 15.786,28.852 15.743,28.953C15.683,29.094 15.617,29.299 15.505,29.411C14.955,29.961 14.645,30.217 13.91,30.462C13.779,30.506 13.404,30.694 13.263,30.624C13.133,30.559 13.209,30.102 13.209,29.977C13.209,29.885 13.155,29.707 13.155,29.707L13.155,30.893C13.155,30.896 13.175,31.344 13.101,31.271C12.944,31.114 13.197,30.598 13.263,30.462C13.313,30.358 13.479,30.193 13.479,30.193L13.479,30.516C13.479,30.753 13.409,30.933 13.371,31.163C13.353,31.271 13.317,31.487 13.317,31.487C13.317,31.487 13.369,31.262 13.425,31.163C13.567,30.914 13.725,30.725 13.856,30.462C14.274,29.626 14.719,28.834 15.204,28.036C17.131,24.865 18.87,21.492 18.87,17.684L18.87,15.42C18.87,15.205 18.95,14.732 18.709,14.611C18.479,14.496 18.132,15.134 18.062,15.258C17.724,15.856 17.384,16.447 17.037,17.037C16.847,17.361 16.641,18.026 16.39,18.277C16.322,18.346 16.335,17.801 16.336,17.792C16.37,17.454 16.442,17.103 16.498,16.768C16.513,16.677 16.539,16.589 16.552,16.498C16.56,16.445 16.59,16.298 16.552,16.336C16.436,16.453 16.291,17.086 16.228,17.253C16.144,17.479 15.905,17.9 15.905,17.9C15.905,17.9 15.913,17.606 15.959,17.469C16.034,17.244 16.109,17.035 16.175,16.822C16.21,16.706 16.336,16.378 16.336,16.498C16.336,16.972 16.268,17.432 16.175,17.9C16.167,17.937 16.001,18.299 16.067,18.331C16.301,18.448 16.557,18.054 16.66,17.954C17.302,17.325 17.847,16.535 18.439,15.851C18.539,15.736 18.655,15.635 18.763,15.528C18.854,15.436 19.045,15.189 19.086,15.312C19.212,15.689 19.094,16.337 19.068,16.73C18.978,18.081 18.712,19.397 18.655,20.757C18.63,21.351 18.572,21.943 18.547,22.537C18.539,22.734 18.547,22.932 18.547,23.13L18.547,23.507C18.547,23.507 18.608,23.287 18.655,23.184C18.785,22.898 18.908,22.609 19.032,22.321C19.378,21.514 19.794,20.772 20.218,20.003C20.523,19.45 20.853,18.896 21.135,18.331C21.178,18.245 21.146,18.062 21.243,18.062C21.422,18.062 21.243,18.421 21.243,18.601C21.243,19.238 21.198,19.853 21.135,20.488C21.091,20.925 21.117,20.911 21.081,21.35C21.072,21.459 21.027,21.783 21.027,21.674C21.027,20.551 21.458,19.446 21.458,18.331C21.458,18.277 21.458,18.439 21.458,18.493L21.458,22.267C21.458,22.519 21.28,22.844 21.458,23.022C21.475,23.039 21.532,22.476 21.565,22.379C21.727,21.893 21.782,21.32 21.836,20.811C21.876,20.433 21.86,20.402 21.944,20.11C21.964,20.039 21.997,19.821 21.997,19.895C21.997,20.617 22.051,21.332 22.051,22.051" style="fill:none;stroke:white;stroke-width:1px;"/>
    </g>
</svg>
