<?xml version="1.0" encoding="UTF-8"?>
<svg xmlns="http://www.w3.org/2000/svg" xmlns:xlink="http://www.w3.org/1999/xlink" width="42px" height="42px" viewBox="0 0 42 42" version="1.1">
<g id="surface1">
<path style=" stroke:none;fill-rule:evenodd;fill:rgb(100%,100%,100%);fill-opacity:1;" d="M 18.992188 7.230469 C 19.753906 5.472656 22.246094 5.472656 23.007812 7.230469 L 26.472656 15.21875 L 35.140625 16.046875 C 37.046875 16.226562 37.816406 18.59375 36.382812 19.863281 L 29.851562 25.625 L 31.746094 34.125 C 32.164062 35.996094 30.148438 37.460938 28.5 36.484375 L 21 32.058594 L 13.5 36.484375 C 11.851562 37.460938 9.835938 35.996094 10.253906 34.125 L 12.148438 25.625 L 5.617188 19.863281 C 4.183594 18.59375 4.953125 16.226562 6.859375 16.046875 L 15.527344 15.21875 Z M 21 11.398438 L 18.328125 17.558594 L 17.917969 18.507812 L 16.890625 18.605469 L 10.203125 19.242188 L 15.238281 23.6875 L 16.011719 24.371094 L 15.789062 25.378906 L 14.328125 31.933594 L 20.109375 28.519531 L 21 27.996094 L 21.890625 28.519531 L 27.671875 31.933594 L 26.210938 25.378906 L 25.988281 24.371094 L 26.761719 23.6875 L 31.796875 19.242188 L 25.109375 18.605469 L 24.082031 18.507812 L 23.671875 17.558594 Z M 21 11.398438 "/>
<path style="fill:none;stroke-width:1;stroke-linecap:round;stroke-linejoin:round;stroke:rgb(100%,100%,100%);stroke-opacity:1;stroke-miterlimit:1.5;" d="M 24.476562 20.703125 C 23.820312 20.703125 22.941406 21.324219 22.375 21.675781 C 22.269531 21.738281 21.792969 22.222656 21.726562 22.160156 C 21.617188 22.050781 21.90625 21.90625 21.996094 21.78125 C 22.300781 21.371094 22.734375 21.019531 23.128906 20.703125 C 23.179688 20.664062 23.441406 20.476562 23.453125 20.488281 C 23.582031 20.617188 23.164062 21.101562 23.101562 21.1875 C 22.726562 21.6875 22.414062 22.285156 22.050781 22.804688 C 21.941406 22.964844 21.621094 23.390625 21.621094 23.238281 "/>
<path style="fill:none;stroke-width:1;stroke-linecap:round;stroke-linejoin:round;stroke:rgb(100%,100%,100%);stroke-opacity:1;stroke-miterlimit:1.5;" d="M 21.621094 22.589844 C 21.804688 22.253906 22.164062 22.019531 22.429688 21.726562 C 22.835938 21.28125 23.097656 20.761719 23.34375 20.21875 C 23.476562 19.929688 23.5625 19.667969 23.5625 19.355469 L 23.5625 18.925781 C 23.195312 19.289062 22.984375 19.941406 22.699219 20.378906 C 22.160156 21.207031 21.539062 22.035156 20.863281 22.753906 C 20.613281 23.019531 20.371094 23.300781 20.109375 23.5625 C 19.886719 23.785156 19.875 23.738281 19.625 23.9375 C 19.566406 23.984375 19.464844 24.175781 19.464844 24.101562 C 19.464844 23.453125 19.835938 22.730469 20.109375 22.160156 C 20.484375 21.375 20.808594 20.59375 21.242188 19.839844 C 21.25 19.828125 21.898438 18.664062 21.996094 18.761719 C 22.101562 18.863281 22 19.523438 21.980469 19.65625 C 21.863281 20.492188 21.226562 21.363281 21.136719 22.160156 C 21.132812 22.1875 21.746094 21.5625 21.78125 21.511719 C 22.234375 20.890625 22.464844 20.203125 22.804688 19.515625 C 22.902344 19.324219 22.96875 19.113281 23.074219 18.925781 C 23.109375 18.867188 23.183594 18.699219 23.183594 18.761719 C 23.183594 19.492188 22.972656 20.113281 22.644531 20.757812 C 22.4375 21.164062 22.46875 21.164062 22.265625 21.566406 C 22.195312 21.710938 22.050781 21.996094 22.050781 21.996094 L 22.050781 20.8125 C 22.050781 20.054688 21.960938 19.246094 22.050781 18.492188 C 22.070312 18.328125 22.140625 18.171875 22.160156 18.007812 C 22.175781 17.863281 22.160156 17.574219 22.160156 17.574219 C 22.160156 17.574219 21.992188 17.941406 21.890625 18.117188 C 21.722656 18.398438 21.589844 18.667969 21.457031 18.976562 C 21.378906 19.167969 21.152344 19.714844 21.296875 19.570312 C 21.945312 18.921875 22.203125 17.78125 22.375 16.929688 C 22.441406 16.589844 22.480469 16.246094 22.535156 15.90625 C 22.554688 15.796875 22.5625 15.6875 22.589844 15.582031 C 22.605469 15.527344 22.644531 15.363281 22.644531 15.421875 C 22.644531 16.367188 22.039062 17.550781 21.726562 18.4375 C 21.609375 18.773438 21.585938 18.902344 21.457031 19.195312 C 21.398438 19.324219 21.242188 19.570312 21.242188 19.570312 C 21.242188 19.570312 21.433594 19.144531 21.511719 18.925781 C 21.664062 18.507812 21.722656 18.058594 21.835938 17.628906 C 21.847656 17.585938 22.054688 16.714844 22.105469 16.769531 C 22.21875 16.882812 22.105469 17.089844 22.105469 17.253906 C 22.105469 17.859375 22.042969 18.433594 21.945312 19.03125 C 21.914062 19.195312 21.71875 19.398438 21.835938 19.515625 C 21.90625 19.589844 22.183594 19.214844 22.214844 19.140625 C 22.449219 18.574219 22.539062 17.898438 22.699219 17.308594 C 22.792969 16.949219 22.769531 16.964844 22.859375 16.605469 C 22.875 16.550781 22.914062 16.386719 22.914062 16.445312 C 22.914062 16.96875 22.851562 17.488281 22.804688 18.007812 C 22.789062 18.207031 22.722656 18.402344 22.699219 18.601562 L 22.699219 18.871094 C 22.699219 18.90625 22.699219 19.015625 22.699219 18.976562 C 22.699219 18.816406 22.8125 18.71875 22.839844 18.554688 C 22.933594 17.996094 22.96875 17.4375 22.96875 16.875 L 22.96875 16.066406 C 22.96875 15.976562 22.96875 15.707031 22.96875 15.796875 L 22.96875 17.898438 C 22.96875 18.042969 23.074219 18.082031 23.074219 17.953125 L 23.074219 16.660156 C 23.074219 16.625 23.066406 16.734375 23.074219 16.769531 C 23.125 16.960938 23.136719 16.9375 23.183594 17.144531 C 23.246094 17.425781 23.292969 17.738281 23.398438 18.007812 C 23.457031 18.148438 23.5625 18.4375 23.5625 18.4375 C 23.5625 18.4375 23.382812 18.148438 23.289062 18.007812 C 23.0625 17.652344 22.894531 17.246094 22.699219 16.875 C 22.121094 15.777344 21.246094 14.5625 21.027344 13.316406 C 20.941406 12.820312 20.882812 12.304688 20.8125 11.808594 C 20.777344 11.574219 20.757812 11.105469 20.757812 11.105469 C 20.757812 11.105469 20.8125 11.507812 20.863281 11.699219 C 20.953125 12.019531 21.070312 12.34375 21.136719 12.671875 C 21.335938 13.667969 21.507812 14.683594 21.675781 15.6875 C 21.742188 16.105469 21.710938 16.09375 21.78125 16.496094 C 21.816406 16.679688 21.890625 17.035156 21.890625 17.035156 C 21.890625 17.035156 21.90625 16.675781 21.890625 16.496094 C 21.875 16.351562 21.738281 15.683594 21.726562 15.636719 C 21.523438 14.738281 21.382812 13.859375 21.296875 12.941406 C 21.269531 12.652344 21.21875 12.363281 21.1875 12.078125 C 21.179688 11.96875 21.113281 11.675781 21.1875 11.753906 C 21.453125 12.019531 21.527344 12.410156 21.726562 12.722656 C 21.921875 13.023438 22.203125 13.375 22.265625 13.746094 C 22.300781 13.957031 22.332031 14.132812 22.375 14.339844 C 22.398438 14.464844 22.429688 14.71875 22.429688 14.71875 C 22.429688 14.71875 22.242188 14.4375 22.160156 14.289062 C 21.921875 13.863281 21.636719 13.480469 21.402344 13.046875 C 21.382812 13.003906 21.035156 12.28125 21.027344 12.292969 C 20.96875 12.351562 21.097656 12.4375 21.136719 12.507812 C 21.277344 12.792969 21.394531 13.167969 21.457031 13.480469 C 21.582031 14.097656 21.710938 14.710938 21.890625 15.3125 C 21.960938 15.542969 22.050781 16.011719 22.050781 16.011719 C 22.050781 16.011719 21.902344 15.691406 21.835938 15.527344 C 21.699219 15.203125 21.710938 15.226562 21.574219 14.890625 C 21.320312 14.25 21.007812 13.640625 20.757812 12.992188 C 20.636719 12.683594 20.648438 12.703125 20.542969 12.390625 C 20.484375 12.222656 20.464844 12.253906 20.378906 12.132812 C 20.355469 12.097656 20.324219 11.984375 20.324219 12.023438 C 20.324219 12.828125 20.433594 13.675781 20.433594 14.503906 L 20.433594 15.851562 C 20.433594 15.851562 20.46875 15.382812 20.433594 15.148438 C 20.359375 14.664062 20.246094 14.191406 20.21875 13.695312 L 20.21875 12.832031 C 20.21875 12.832031 20.308594 13.078125 20.324219 13.210938 C 20.359375 13.453125 20.378906 13.714844 20.378906 13.964844 L 20.378906 16.066406 C 20.378906 16.15625 20.378906 15.886719 20.378906 15.796875 C 20.378906 15.6875 20.386719 15.582031 20.378906 15.472656 C 20.347656 15.023438 20.300781 14.574219 20.273438 14.125 C 20.257812 13.890625 20.164062 13.425781 20.164062 13.425781 L 20.164062 14.289062 C 20.117188 15.015625 19.992188 15.691406 19.785156 16.390625 L 19.570312 17.144531 C 19.554688 17.234375 19.515625 17.414062 19.515625 17.414062 L 19.515625 17.199219 C 19.515625 16.839844 19.53125 16.859375 19.570312 16.496094 C 19.636719 15.917969 19.726562 15.347656 19.839844 14.773438 C 19.84375 14.753906 19.976562 13.746094 20.109375 13.746094 C 20.148438 13.746094 20.066406 14.671875 20.054688 14.71875 C 19.828125 15.632812 19.378906 16.425781 19.085938 17.308594 C 19.046875 17.425781 19.085938 17.054688 19.085938 16.929688 C 19.085938 16.558594 19.21875 16.195312 19.355469 15.851562 C 19.398438 15.738281 19.488281 15.644531 19.515625 15.527344 C 19.527344 15.488281 19.570312 15.378906 19.570312 15.421875 C 19.570312 15.742188 19.253906 16.160156 19.140625 16.445312 C 18.84375 17.175781 18.445312 17.90625 18.0625 18.601562 C 18.003906 18.707031 17.664062 19.320312 17.574219 19.464844 C 17.453125 19.664062 17.199219 20.054688 17.199219 20.054688 C 17.199219 20.054688 17.234375 19.71875 17.308594 19.570312 C 17.484375 19.21875 17.492188 19.242188 17.628906 18.871094 C 17.882812 18.175781 18.296875 17.558594 18.761719 16.984375 C 19.042969 16.636719 19.035156 16.65625 19.300781 16.390625 C 19.347656 16.34375 19.410156 16.164062 19.410156 16.226562 C 19.410156 17.273438 18.378906 18.53125 17.792969 19.355469 C 17.730469 19.441406 16.882812 20.269531 16.929688 20.324219 C 17.050781 20.480469 17.765625 19.652344 17.792969 19.625 C 18.160156 19.222656 18.496094 18.785156 18.871094 18.386719 C 19.0625 18.179688 19.28125 18.003906 19.464844 17.792969 C 19.523438 17.722656 19.679688 17.628906 19.679688 17.628906 C 19.679688 17.628906 19.378906 17.90625 19.246094 18.0625 C 18.949219 18.414062 18.636719 18.726562 18.277344 19.03125 C 17.523438 19.675781 16.75 20.273438 15.960938 20.863281 C 15.925781 20.890625 15.367188 21.203125 15.367188 21.296875 C 15.367188 21.308594 16.121094 20.800781 16.175781 20.757812 C 16.882812 20.191406 17.503906 19.535156 18.167969 18.925781 C 18.476562 18.644531 18.476562 18.671875 18.761719 18.386719 C 18.800781 18.347656 19.136719 18.054688 19.140625 18.0625 C 19.144531 18.078125 18.800781 18.4375 18.761719 18.492188 C 18.453125 18.9375 18.101562 19.328125 17.738281 19.734375 C 17.722656 19.75 17.300781 20.21875 17.308594 20.21875 C 17.460938 20.21875 17.695312 19.839844 17.738281 19.785156 C 17.828125 19.679688 17.925781 19.578125 18.007812 19.464844 C 18.234375 19.148438 18.4375 18.816406 18.65625 18.492188 C 18.691406 18.433594 19.25 17.386719 19.410156 17.46875 C 19.539062 17.535156 19.269531 18.171875 19.246094 18.222656 C 18.972656 18.9375 18.6875 19.628906 18.386719 20.324219 C 18.351562 20.402344 18.070312 21.027344 18.117188 21.082031 C 18.191406 21.175781 18.355469 20.949219 18.386719 20.917969 C 18.644531 20.652344 18.910156 20.335938 19.085938 20.003906 C 19.507812 19.207031 19.769531 18.277344 20.003906 17.414062 C 20.078125 17.132812 20.210938 16.59375 20.273438 16.28125 C 20.292969 16.175781 20.300781 16.066406 20.324219 15.960938 C 20.34375 15.886719 20.378906 15.667969 20.378906 15.742188 C 20.378906 16.515625 19.941406 17.273438 19.734375 18.007812 C 19.671875 18.226562 19.578125 18.4375 19.515625 18.65625 C 19.503906 18.710938 19.40625 18.816406 19.464844 18.816406 C 19.652344 18.816406 19.71875 18.53125 19.839844 18.386719 C 20.253906 17.878906 20.53125 17.21875 20.757812 16.605469 C 20.863281 16.316406 20.933594 16.066406 21.082031 15.796875 C 21.128906 15.714844 21.15625 15.4375 21.1875 15.527344 C 21.261719 15.746094 20.9375 16.269531 20.863281 16.445312 C 20.625 17.023438 20.304688 17.636719 20.109375 18.222656 C 20.058594 18.382812 20.089844 18.542969 20.003906 18.65625 C 19.96875 18.699219 20.015625 18.53125 20.054688 18.492188 C 20.128906 18.414062 20.191406 18.328125 20.21875 18.222656 C 20.289062 17.953125 20.34375 17.558594 20.378906 17.308594 C 20.472656 16.617188 20.5625 15.902344 20.597656 15.203125 C 20.601562 15.042969 20.585938 14.878906 20.597656 14.71875 C 20.605469 14.539062 20.648438 14.179688 20.648438 14.179688 L 20.648438 14.394531 C 20.648438 14.621094 20.679688 14.871094 20.648438 15.097656 C 20.566406 15.761719 20.457031 16.433594 20.324219 17.089844 C 20.285156 17.289062 20.246094 17.484375 20.21875 17.683594 C 20.207031 17.753906 20.167969 17.949219 20.21875 17.898438 C 20.792969 17.324219 20.949219 16.445312 21.300781 15.738281 C 21.355469 15.632812 21.542969 14.882812 21.675781 14.882812 C 21.773438 14.882812 21.527344 15.800781 21.511719 15.851562 C 21.347656 16.34375 21.230469 16.863281 21.082031 17.359375 C 21.019531 17.5625 20.863281 17.953125 20.863281 17.953125 C 20.863281 17.953125 20.980469 17.742188 21.027344 17.628906 C 21.125 17.40625 21.101562 17.160156 21.136719 16.929688 C 21.148438 16.839844 21.1875 16.660156 21.1875 16.660156 L 21.1875 16.875 C 21.1875 17.234375 21.175781 17.214844 21.082031 17.574219 C 20.867188 18.386719 20.636719 19.191406 20.433594 20.003906 C 20.324219 20.445312 20.359375 20.433594 20.273438 20.863281 C 20.253906 20.953125 20.21875 21.136719 20.21875 21.136719 C 20.21875 21.136719 20.257812 20.777344 20.273438 20.597656 C 20.3125 20.117188 20.375 20.152344 20.488281 19.679688 C 20.644531 19.023438 20.917969 18.195312 20.917969 17.523438 C 20.917969 17.46875 20.929688 17.632812 20.917969 17.683594 C 20.894531 17.8125 20.84375 17.933594 20.8125 18.0625 C 20.722656 18.425781 20.660156 18.78125 20.542969 19.140625 C 20.492188 19.285156 20.378906 19.570312 20.378906 19.570312 C 20.378906 19.570312 20.355469 19.316406 20.378906 19.195312 C 20.421875 18.992188 20.449219 18.585938 20.597656 18.441406 C 20.675781 18.359375 20.703125 18.117188 20.703125 18.117188 C 20.703125 18.117188 20.628906 18.328125 20.597656 18.4375 C 20.496094 18.777344 20.351562 19.085938 20.195312 19.398438 C 19.742188 20.300781 19.484375 21.304688 19.035156 22.207031 C 18.882812 22.507812 18.8125 22.8125 18.710938 23.128906 C 18.664062 23.257812 18.644531 23.605469 18.546875 23.507812 C 18.480469 23.441406 18.601562 22.914062 18.601562 22.914062 C 18.734375 22.113281 18.980469 21.339844 19.140625 20.542969 C 19.195312 20.265625 19.316406 19.960938 19.355469 19.679688 C 19.375 19.535156 19.308594 19.144531 19.410156 19.246094 C 19.484375 19.324219 19.410156 20.03125 19.410156 20.109375 L 19.410156 21.621094 C 19.410156 21.828125 19.355469 22.789062 19.355469 22.050781 C 19.355469 21.945312 19.347656 21.835938 19.355469 21.726562 C 19.363281 21.617188 19.402344 21.511719 19.410156 21.402344 C 19.433594 21.082031 19.445312 20.757812 19.464844 20.433594 C 19.484375 20.058594 19.464844 19.675781 19.464844 19.300781 C 19.464844 19.222656 19.398438 19.449219 19.355469 19.515625 C 19.09375 19.910156 19.113281 19.902344 18.925781 20.324219 C 18.679688 20.878906 18.410156 21.414062 18.117188 21.945312 C 17.996094 22.160156 17.867188 22.371094 17.757812 22.59375 C 17.695312 22.710938 17.6875 23.085938 17.628906 22.96875 C 17.414062 22.53125 17.828125 21.652344 17.898438 21.242188 C 17.96875 20.847656 17.976562 20.863281 18.0625 20.488281 C 18.078125 20.414062 18.0625 20.21875 18.117188 20.273438 C 18.199219 20.355469 17.964844 20.988281 17.953125 21.027344 C 17.742188 21.707031 17.355469 22.261719 17.09375 22.910156 C 16.980469 23.195312 16.800781 23.402344 16.660156 23.667969 C 16.613281 23.753906 16.59375 23.851562 16.550781 23.9375 C 16.511719 24.019531 16.390625 24.242188 16.390625 24.152344 C 16.390625 23.269531 16.605469 22.335938 16.714844 21.457031 C 16.761719 21.078125 16.824219 20.703125 16.875 20.324219 C 16.894531 20.183594 16.929688 19.894531 16.929688 19.894531 C 16.929688 19.894531 16.804688 20.332031 16.714844 20.542969 C 16.519531 20.992188 16.304688 21.429688 16.121094 21.890625 C 16.109375 21.917969 15.667969 22.765625 15.636719 22.699219 C 15.589844 22.605469 15.636719 22.304688 15.636719 22.214844 C 15.636719 21.472656 15.769531 20.730469 15.90625 20.003906 C 15.917969 19.929688 15.914062 19.453125 16.011719 19.355469 C 16.050781 19.316406 16.011719 19.464844 16.011719 19.515625 C 16.011719 19.71875 16.023438 19.710938 15.960938 19.949219 C 15.859375 20.316406 15.746094 20.648438 15.6875 21.027344 C 15.667969 21.171875 15.679688 21.320312 15.636719 21.457031 C 15.621094 21.496094 15.554688 21.59375 15.582031 21.566406 C 15.683594 21.464844 15.722656 21.203125 15.796875 21.082031 C 16.042969 20.671875 16.265625 20.257812 16.496094 19.839844 C 16.636719 19.59375 17.035156 19.074219 17.035156 18.761719 C 17.035156 18.710938 17.035156 18.871094 17.035156 18.925781 L 17.035156 19.464844 C 17.003906 19.960938 16.917969 20.433594 16.820312 20.917969 C 16.78125 21.117188 16.746094 21.3125 16.714844 21.511719 C 16.703125 21.582031 16.714844 21.726562 16.714844 21.726562 C 16.714844 21.726562 16.675781 21.257812 16.714844 21.027344 C 16.808594 20.46875 17.054688 19.90625 17.199219 19.355469 C 17.238281 19.199219 17.3125 19.105469 17.3125 18.9375 C 17.3125 18.878906 17.347656 18.722656 17.308594 18.761719 C 16.890625 19.179688 16.679688 19.980469 16.390625 20.488281 C 16.238281 20.753906 16.222656 20.726562 16.117188 21.035156 C 16.082031 21.148438 15.960938 21.46875 15.960938 21.351562 C 15.960938 20.78125 16.082031 20.242188 16.121094 19.679688 C 16.140625 19.351562 16.125 19.375 16.175781 19.03125 C 16.183594 18.960938 16.175781 18.816406 16.175781 18.816406 C 16.175781 18.816406 16.183594 19.222656 16.121094 19.410156 C 15.929688 19.996094 15.703125 20.5625 15.472656 21.136719 C 15.382812 21.363281 15.257812 21.835938 15.257812 21.835938 L 15.257812 21.027344 C 15.257812 20.605469 15.285156 20.203125 15.3125 19.785156 L 15.3125 19.140625 C 15.3125 19.066406 15.3125 18.851562 15.3125 18.925781 C 15.3125 19.382812 14.851562 20.136719 14.664062 20.542969 C 14.585938 20.714844 14.496094 20.847656 14.464844 21.039062 C 14.449219 21.144531 14.472656 21.425781 14.394531 21.351562 C 14.355469 21.3125 14.394531 20.824219 14.394531 20.8125 C 14.394531 20.40625 14.414062 20.027344 14.449219 19.625 C 14.457031 19.535156 14.4375 19.445312 14.449219 19.355469 C 14.460938 19.28125 14.578125 19.140625 14.503906 19.140625 C 14.382812 19.140625 14.382812 19.351562 14.339844 19.464844 C 14.222656 19.78125 14.074219 20.09375 14.019531 20.433594 C 13.980469 20.644531 14 20.632812 13.910156 20.8125 C 13.890625 20.847656 13.886719 20.949219 13.855469 20.917969 C 13.667969 20.730469 13.949219 19.722656 13.964844 19.515625 C 13.980469 19.285156 14.019531 18.816406 14.019531 18.816406 C 14.019531 18.816406 13.980469 19.152344 13.910156 19.300781 C 13.777344 19.589844 13.609375 19.867188 13.480469 20.164062 C 13.441406 20.253906 13.371094 20.53125 13.371094 20.433594 C 13.371094 20.058594 13.535156 19.203125 13.371094 18.871094 C 13.34375 18.8125 13.242188 18.921875 13.210938 18.976562 C 13.058594 19.226562 12.777344 19.734375 12.777344 19.734375 C 12.777344 19.734375 12.734375 19.589844 12.722656 19.515625 C 12.691406 19.316406 12.722656 19.070312 12.722656 18.871094 C 12.722656 18.867188 12.773438 18.4375 12.671875 18.4375 C 12.46875 18.445312 12.371094 19.054688 12.292969 19.195312 C 12.1875 19.378906 12.109375 19.46875 12.023438 19.679688 C 11.992188 19.753906 11.914062 19.894531 11.914062 19.894531 C 11.914062 19.894531 11.875 19.679688 11.859375 19.570312 C 11.835938 19.363281 11.972656 18.765625 11.808594 18.601562 C 11.761719 18.554688 11.730469 18.703125 11.699219 18.761719 C 11.566406 19.027344 11.320312 19.570312 11.320312 19.570312 C 11.320312 19.570312 11.269531 19.355469 11.269531 19.246094 C 11.269531 19.140625 11.226562 18.558594 11.160156 18.492188 C 11.085938 18.417969 10.914062 19.054688 10.890625 19.140625 C 10.871094 19.21875 10.78125 19.4375 10.78125 19.355469 C 10.78125 19.21875 10.777344 18.980469 10.675781 19.085938 C 10.558594 19.203125 10.816406 19.441406 10.835938 19.464844 C 10.886719 19.515625 10.835938 19.75 10.835938 19.679688 C 10.835938 19.414062 10.640625 19.15625 10.460938 18.976562 C 10.378906 18.898438 10.191406 18.761719 10.191406 18.761719 C 10.191406 18.761719 10.460938 18.984375 10.613281 19.058594 C 10.90625 19.203125 11.15625 19.351562 11.46875 19.453125 C 12.554688 19.816406 13.605469 20.449219 14.558594 21.082031 C 14.933594 21.328125 15.34375 21.484375 15.6875 21.78125 C 15.71875 21.804688 15.960938 21.996094 15.90625 22.050781 C 15.78125 22.175781 14.910156 21.609375 14.828125 21.566406 C 13.90625 21.070312 12.96875 20.636719 11.96875 20.324219 C 11.859375 20.292969 11.253906 19.984375 11.105469 20.054688 C 11.070312 20.074219 11.195312 20.300781 11.207031 20.324219 C 11.34375 20.59375 11.628906 20.742188 11.785156 21 C 11.992188 21.347656 12.324219 21.53125 12.5625 21.835938 C 12.746094 22.074219 12.890625 22.484375 13.101562 22.699219 C 13.210938 22.808594 12.925781 22.445312 12.832031 22.320312 C 12.683594 22.125 12.578125 21.9375 12.453125 21.726562 C 12.082031 21.089844 11.644531 20.496094 11.214844 19.894531 C 11.015625 19.617188 11.066406 19.609375 10.890625 19.300781 C 10.851562 19.234375 10.730469 19.140625 10.730469 19.140625 C 10.730469 19.140625 10.84375 19.242188 10.890625 19.300781 C 11.101562 19.554688 11.097656 19.539062 11.320312 19.785156 C 11.746094 20.261719 12.1875 20.71875 12.617188 21.1875 C 13.015625 21.628906 13.613281 22.191406 13.910156 22.699219 C 13.96875 22.796875 14.21875 23.34375 14.394531 23.34375 C 14.4375 23.34375 14.359375 23.273438 14.339844 23.238281 C 14.273438 23.101562 14.242188 22.945312 14.179688 22.804688 C 14.054688 22.527344 13.957031 22.375 13.800781 22.105469 C 13.527344 21.621094 13.28125 21.1875 12.941406 20.757812 C 12.898438 20.707031 12.742188 20.324219 12.671875 20.324219 C 12.613281 20.324219 12.691406 20.441406 12.722656 20.488281 C 12.789062 20.582031 12.863281 20.671875 12.941406 20.757812 C 13.082031 20.921875 13.191406 21.066406 13.316406 21.242188 C 13.738281 21.835938 14.25 22.359375 14.71875 22.914062 C 14.992188 23.238281 14.992188 23.207031 15.257812 23.507812 C 15.378906 23.640625 15.582031 23.9375 15.582031 23.9375 L 15.582031 23.667969 C 15.582031 23.460938 15.566406 23.28125 15.453125 23.097656 C 15.132812 22.5625 14.621094 22.144531 14.257812 21.636719 C 14.140625 21.476562 14.03125 21.429688 13.910156 21.296875 C 13.902344 21.289062 13.640625 20.996094 13.640625 21.027344 C 13.640625 21.097656 14.09375 21.390625 14.15625 21.429688 C 14.617188 21.707031 15.066406 22.226562 15.472656 22.589844 C 15.835938 22.914062 16.152344 23.347656 16.550781 23.613281 C 16.5625 23.621094 16.878906 23.90625 16.929688 23.832031 C 17.027344 23.679688 16.984375 23.398438 16.984375 23.238281 C 16.984375 22.734375 17.019531 22.226562 16.929688 21.726562 C 16.910156 21.621094 16.71875 21.289062 16.769531 21.1875 C 16.945312 20.828125 17.914062 20.671875 18.222656 20.542969 C 18.363281 20.484375 18.742188 20.164062 18.925781 20.164062 C 19.0625 20.164062 18.839844 20.429688 18.761719 20.542969 C 18.566406 20.839844 18.320312 21.109375 18.117188 21.402344 C 17.75 21.929688 17.414062 22.449219 17.035156 22.96875 C 16.945312 23.09375 16.921875 23.34375 16.769531 23.34375 C 16.6875 23.34375 16.714844 22.8125 16.714844 22.804688 C 16.714844 22.367188 16.71875 21.949219 16.769531 21.511719 C 16.796875 21.242188 16.792969 20.972656 16.820312 20.703125 C 16.828125 20.628906 16.875 20.414062 16.875 20.488281 L 16.875 22.265625 C 16.875 22.476562 16.832031 23.335938 17.089844 22.753906 C 17.136719 22.648438 17.171875 22.539062 17.199219 22.429688 C 17.339844 21.824219 17.460938 21.246094 17.628906 20.648438 C 17.679688 20.476562 17.792969 20.292969 17.792969 20.109375 C 17.792969 20.019531 17.800781 20.289062 17.792969 20.378906 C 17.78125 20.523438 17.761719 20.667969 17.738281 20.8125 C 17.621094 21.503906 17.574219 21.472656 17.414062 22.160156 C 17.046875 23.722656 16.570312 25.242188 16.175781 26.796875 C 16.074219 27.1875 15.824219 27.546875 15.761719 27.933594 C 15.753906 27.964844 15.773438 28.253906 15.6875 28.253906 C 15.597656 28.253906 15.6875 28.070312 15.6875 27.980469 C 15.6875 27.574219 15.703125 27.59375 15.742188 27.171875 C 15.8125 26.394531 15.992188 25.667969 16.121094 24.902344 C 16.171875 24.605469 16.261719 24.335938 16.335938 24.046875 C 16.378906 23.886719 16.445312 23.5625 16.445312 23.5625 C 16.445312 23.5625 16.429688 23.886719 16.390625 24.046875 C 16.308594 24.375 16.304688 24.355469 16.234375 24.691406 C 16.105469 25.339844 15.78125 26.050781 15.582031 26.6875 C 15.445312 27.117188 15.410156 27.082031 15.257812 27.496094 C 15.214844 27.621094 15.148438 28.003906 15.148438 27.875 C 15.148438 27.109375 15.277344 26.414062 15.421875 25.664062 C 15.46875 25.40625 15.554688 24.957031 15.636719 24.691406 C 15.675781 24.5625 15.734375 24.191406 15.796875 24.316406 C 15.945312 24.613281 15.550781 25.210938 15.472656 25.503906 C 15.25 26.359375 15.03125 27.1875 14.773438 28.035156 C 14.648438 28.441406 14.464844 28.816406 14.339844 29.222656 C 14.308594 29.332031 14.261719 29.433594 14.234375 29.546875 C 14.214844 29.613281 14.234375 29.832031 14.234375 29.761719 C 14.234375 29.113281 14.363281 28.464844 14.449219 27.820312 C 14.484375 27.550781 14.503906 27.011719 14.503906 27.011719 C 14.503906 27.011719 14.515625 27.335938 14.503906 27.496094 C 14.476562 27.839844 14.441406 28.179688 14.394531 28.519531 C 14.292969 29.277344 14.136719 30.03125 14.019531 30.785156 C 13.953125 31.191406 13.980469 31.175781 13.910156 31.59375 C 13.894531 31.6875 13.855469 31.921875 13.800781 32.027344 C 13.785156 32.0625 13.746094 32.175781 13.746094 32.132812 C 13.746094 31.167969 13.875 30.351562 14.179688 29.4375 C 14.246094 29.238281 14.183594 28.84375 14.394531 28.84375 C 14.558594 28.84375 14.394531 29.167969 14.394531 29.328125 L 14.394531 31.324219 C 14.394531 31.410156 14.445312 31.761719 14.339844 31.863281 C 14.304688 31.902344 14.335938 31.761719 14.335938 31.707031 C 14.335938 31.574219 14.34375 31.578125 14.390625 31.433594 C 14.460938 31.214844 14.527344 30.996094 14.609375 30.785156 C 14.828125 30.246094 15.078125 29.703125 15.3125 29.167969 C 15.375 29.023438 15.539062 28.710938 15.636719 28.574219 C 15.671875 28.523438 15.742188 28.347656 15.742188 28.414062 C 15.742188 28.914062 15.695312 29.324219 15.582031 29.816406 C 15.558594 29.910156 15.550781 30.183594 15.472656 30.300781 C 15.429688 30.367188 15.316406 30.578125 15.367188 30.515625 C 15.460938 30.394531 15.414062 29.957031 15.464844 29.78125 C 15.644531 29.164062 16.039062 28.527344 16.28125 27.929688 C 16.40625 27.628906 16.554688 27.167969 16.660156 26.851562 C 16.695312 26.742188 16.730469 26.632812 16.769531 26.527344 C 16.789062 26.457031 16.820312 26.238281 16.820312 26.3125 C 16.820312 27.414062 16.386719 28.570312 16.011719 29.597656 C 15.839844 30.082031 15.84375 30.0625 15.6875 30.570312 C 15.644531 30.710938 15.582031 31 15.582031 31 C 15.582031 31 15.609375 30.710938 15.636719 30.570312 C 15.664062 30.421875 15.695312 30.226562 15.742188 30.085938 C 15.902344 29.605469 16.152344 29.148438 16.335938 28.683594 C 16.847656 27.382812 17.371094 26.183594 18.0625 24.964844 C 18.089844 24.914062 18.5625 23.9375 18.761719 23.9375 C 18.835938 23.9375 18.761719 24.082031 18.761719 24.152344 C 18.761719 24.542969 18.757812 24.519531 18.65625 24.910156 C 18.40625 25.855469 18.183594 26.796875 17.894531 27.730469 C 17.792969 28.066406 17.761719 28.398438 17.683594 28.738281 C 17.65625 28.863281 17.609375 28.988281 17.574219 29.113281 C 17.550781 29.203125 17.523438 29.476562 17.523438 29.382812 C 17.523438 28.898438 17.839844 28.207031 18.007812 27.765625 C 18.46875 26.566406 18.960938 25.367188 19.625 24.261719 C 19.765625 24.027344 19.910156 23.792969 20.054688 23.5625 C 20.191406 23.339844 20.230469 22.914062 20.488281 22.914062 C 20.578125 22.914062 20.503906 23.09375 20.488281 23.183594 C 20.464844 23.328125 20.234375 24.140625 20.21875 24.207031 C 20.058594 24.847656 19.855469 25.460938 19.679688 26.09375 C 19.574219 26.476562 19.605469 26.464844 19.464844 26.851562 C 19.4375 26.917969 19.410156 27.066406 19.410156 27.066406 C 19.410156 27.066406 19.480469 26.886719 19.515625 26.796875 C 19.570312 26.664062 19.699219 26.105469 19.734375 25.988281 C 19.886719 25.398438 20.027344 24.804688 20.164062 24.207031 C 20.210938 24.011719 20.238281 23.8125 20.273438 23.613281 C 20.292969 23.488281 20.300781 23.363281 20.324219 23.238281 C 20.339844 23.164062 20.378906 22.949219 20.378906 23.023438 C 20.378906 23.425781 19.839844 24.035156 19.625 24.371094 C 18.945312 25.425781 18.246094 26.71875 17.359375 27.605469 C 17.304688 27.660156 17.445312 27.464844 17.46875 27.390625 C 17.535156 27.183594 17.539062 27.035156 17.628906 26.828125 C 17.816406 26.40625 17.867188 25.949219 18.035156 25.519531 C 18.441406 24.464844 18.867188 23.332031 19.121094 22.226562 C 19.195312 21.90625 19.410156 21.488281 19.410156 21.1875 C 19.410156 21.136719 19.425781 21.300781 19.410156 21.351562 C 19.382812 21.445312 19.339844 21.53125 19.300781 21.621094 C 19.121094 22.050781 19.152344 22.046875 18.976562 22.484375 C 18.664062 23.261719 18.363281 24.042969 18.007812 24.800781 C 17.894531 25.042969 17.710938 25.453125 17.628906 25.71875 C 17.566406 25.917969 17.609375 25.917969 17.523438 26.09375 C 17.503906 26.132812 17.496094 26.230469 17.46875 26.203125 C 17.382812 26.117188 17.492188 25.574219 17.515625 25.480469 C 17.667969 24.785156 17.828125 24.089844 18.007812 23.398438 C 18.109375 23.015625 18.074219 23.023438 18.167969 22.644531 C 18.183594 22.589844 18.222656 22.484375 18.222656 22.484375 L 18.222656 23.34375 C 18.222656 23.808594 18.214844 24.292969 18.117188 24.746094 C 18.09375 24.859375 18.042969 24.964844 18.007812 25.070312 C 17.976562 25.160156 17.96875 25.410156 17.898438 25.339844 C 17.851562 25.289062 18.003906 24.714844 18.007812 24.691406 C 18.113281 24.210938 18.25 23.726562 18.332031 23.238281 C 18.398438 22.832031 18.355469 22.839844 18.4375 22.429688 C 18.460938 22.316406 18.546875 21.992188 18.546875 22.105469 C 18.546875 22.765625 17.882812 23.503906 17.628906 24.101562 C 17.472656 24.476562 17.488281 24.46875 17.359375 24.855469 C 17.328125 24.945312 17.289062 25.035156 17.253906 25.125 C 17.230469 25.175781 17.199219 25.34375 17.199219 25.285156 L 17.199219 24.746094 C 17.199219 24.65625 17.253906 24.386719 17.253906 24.476562 C 17.253906 24.800781 17.25 25.125 17.253906 25.449219 C 17.261719 26.273438 17.121094 27.007812 16.984375 27.820312 C 16.832031 28.71875 16.605469 29.613281 16.496094 30.515625 C 16.449219 30.925781 16.476562 30.910156 16.445312 31.324219 C 16.425781 31.570312 16.390625 31.542969 16.390625 31.808594 C 16.390625 31.863281 16.390625 32.027344 16.390625 31.972656 C 16.390625 31.105469 16.5625 30.25 16.605469 29.382812 C 16.628906 28.910156 16.625 28.933594 16.660156 28.46875 C 16.671875 28.324219 16.660156 28.035156 16.660156 28.035156 L 16.660156 28.84375 C 16.746094 28.84375 16.8125 28.597656 16.820312 28.574219 C 17.007812 28.203125 17.238281 27.84375 17.46875 27.496094 C 17.5 27.449219 17.679688 27.058594 17.792969 27.171875 C 17.90625 27.289062 17.792969 27.496094 17.792969 27.660156 C 17.792969 28.414062 17.617188 29.078125 17.46875 29.816406 C 17.4375 29.976562 17.394531 30.136719 17.359375 30.300781 C 17.339844 30.40625 17.332031 30.519531 17.308594 30.625 C 17.292969 30.679688 17.253906 30.84375 17.253906 30.785156 C 17.253906 30.09375 17.320312 29.347656 17.683594 28.738281 C 17.816406 28.515625 17.941406 28.316406 18.0625 28.089844 C 18.132812 27.953125 18.332031 27.710938 18.332031 27.710938 C 18.332031 27.710938 18.34375 28 18.332031 28.144531 C 18.277344 28.667969 18.132812 29.058594 17.953125 29.546875 C 17.890625 29.722656 17.792969 30.085938 17.792969 30.085938 C 17.792969 30.085938 17.929688 29.863281 18.007812 29.761719 C 18.324219 29.351562 18.34375 29.394531 18.710938 29.007812 C 19.429688 28.242188 20.132812 27.332031 21.066406 26.8125 C 21.171875 26.753906 21.449219 26.472656 21.566406 26.472656 C 21.621094 26.472656 21.53125 26.582031 21.511719 26.632812 C 21.417969 26.867188 21.425781 26.851562 21.296875 27.066406 C 21.0625 27.453125 20.8125 27.835938 20.542969 28.199219 C 20.417969 28.363281 20.164062 28.683594 20.164062 28.683594 C 20.164062 28.683594 20.222656 28.53125 20.273438 28.46875 C 20.417969 28.273438 20.558594 28.070312 20.703125 27.875 C 20.988281 27.496094 21.285156 27.128906 21.621094 26.796875 C 21.710938 26.707031 21.800781 26.617188 21.890625 26.527344 C 21.960938 26.453125 22.121094 26.210938 22.105469 26.3125 C 22.0625 26.546875 21.695312 26.660156 21.535156 26.789062 C 20.820312 27.359375 20.140625 27.78125 19.300781 28.199219 C 19.074219 28.3125 18.492188 28.84375 18.222656 28.738281 C 18.191406 28.722656 18.597656 28.050781 18.65625 27.980469 C 18.925781 27.644531 19.191406 27.285156 19.386719 26.894531 C 19.484375 26.695312 19.785156 26.363281 19.785156 26.363281 C 19.785156 26.363281 19.675781 26.46875 19.625 26.527344 C 19.46875 26.710938 19.296875 26.878906 19.140625 27.066406 C 18.84375 27.421875 18.59375 27.816406 18.332031 28.199219 C 18.265625 28.292969 18.191406 28.378906 18.117188 28.46875 C 18.066406 28.523438 17.953125 28.703125 17.953125 28.628906 C 17.953125 28.34375 18.507812 27.9375 18.65625 27.765625 C 19.4375 26.863281 20.136719 25.875 21.082031 25.125 C 21.308594 24.945312 21.875 24.425781 22.160156 24.425781 C 22.234375 24.425781 22.144531 24.574219 22.105469 24.640625 C 21.878906 25.003906 21.558594 25.324219 21.296875 25.664062 C 20.792969 26.320312 20.289062 26.9375 19.734375 27.550781 C 19.621094 27.671875 19.570312 27.96875 19.410156 27.929688 C 19.316406 27.90625 19.507812 27.574219 19.515625 27.550781 C 19.621094 27.324219 19.816406 26.839844 19.894531 26.632812 C 20.136719 25.992188 20.476562 25.457031 20.8125 24.855469 C 20.835938 24.816406 21.183594 24.046875 21.242188 24.046875 C 21.335938 24.046875 21.222656 24.230469 21.1875 24.316406 C 21.144531 24.429688 21.09375 24.539062 21.027344 24.640625 C 20.628906 25.257812 20.171875 25.867188 19.679688 26.417969 C 19.640625 26.464844 19.417969 26.75 19.410156 26.742188 C 19.351562 26.683594 19.476562 26.597656 19.515625 26.527344 C 19.714844 26.179688 19.921875 25.878906 20.164062 25.554688 C 20.542969 25.050781 20.953125 24.574219 21.296875 24.046875 C 21.582031 23.605469 21.550781 23.609375 21.890625 23.183594 C 21.960938 23.09375 22.105469 22.914062 22.105469 22.914062 C 22.105469 22.914062 21.953125 23.011719 21.890625 23.074219 C 21.6875 23.277344 21.558594 23.484375 21.402344 23.722656 C 21.097656 24.1875 20.746094 24.609375 20.433594 25.070312 C 20.210938 25.402344 20.195312 25.367188 19.949219 25.664062 C 19.90625 25.714844 19.839844 25.890625 19.839844 25.824219 C 19.839844 25.421875 20.09375 24.941406 20.273438 24.585938 C 20.679688 23.78125 21.152344 22.984375 21.511719 22.160156 C 21.578125 22.003906 21.722656 21.082031 21.890625 21.082031 C 21.945312 21.082031 21.855469 21.1875 21.835938 21.242188 C 21.679688 21.671875 21.671875 21.644531 21.511719 22.050781 C 21.328125 22.523438 21.089844 22.976562 20.917969 23.453125 C 20.800781 23.78125 20.851562 23.769531 20.757812 24.101562 C 20.734375 24.175781 20.648438 24.316406 20.648438 24.316406 C 20.648438 24.316406 20.898438 23.917969 21.027344 23.722656 C 21.3125 23.292969 21.265625 23.292969 21.511719 22.859375 C 22.046875 21.925781 22.6875 21.066406 23.183594 20.109375 C 23.332031 19.824219 23.460938 19.527344 23.613281 19.246094 C 23.652344 19.175781 23.722656 19.03125 23.722656 19.03125 C 23.722656 19.03125 23.539062 19.316406 23.453125 19.464844 C 23.21875 19.855469 23.019531 20.308594 22.804688 20.703125 C 22.511719 21.25 22.15625 21.738281 21.835938 22.265625 C 21.492188 22.828125 21.171875 23.578125 20.703125 24.046875 C 20.652344 24.097656 20.738281 23.902344 20.757812 23.832031 C 20.808594 23.621094 20.804688 23.566406 20.941406 23.378906 C 21.222656 22.984375 21.359375 22.484375 21.566406 22.050781 C 21.886719 21.378906 22.285156 20.761719 22.644531 20.109375 C 22.835938 19.761719 22.945312 19.285156 23.183594 18.976562 C 23.21875 18.933594 23.171875 19.101562 23.132812 19.144531 C 22.953125 19.320312 22.992188 19.320312 22.859375 19.515625 C 22.800781 19.605469 22.320312 20.324219 22.320312 20.324219 C 21.855469 20.984375 21.421875 21.652344 20.972656 22.320312 C 20.863281 22.484375 20.769531 22.652344 20.648438 22.804688 C 20.609375 22.855469 20.542969 23.03125 20.542969 22.96875 C 20.542969 22.507812 20.515625 22 20.675781 21.566406 C 20.761719 21.34375 20.8125 20.863281 20.8125 20.863281 L 20.8125 21.351562 C 20.8125 21.695312 20.757812 22.03125 20.703125 22.375 C 20.6875 22.484375 20.660156 22.589844 20.648438 22.699219 C 20.640625 22.789062 20.585938 23.03125 20.648438 22.96875 C 21.296875 22.320312 21.714844 21.308594 22.375 20.648438 C 22.425781 20.597656 22.386719 20.792969 22.375 20.863281 C 22.351562 20.996094 22.265625 21.125 22.214844 21.242188 C 22.035156 21.644531 21.875 22.097656 21.835938 22.535156 C 21.835938 22.550781 21.738281 23.125 21.835938 23.074219 C 22.664062 22.660156 23.164062 21.402344 23.5625 20.648438 C 23.675781 20.429688 23.808594 20.222656 23.921875 20 C 23.933594 19.972656 24.007812 19.625 24.046875 19.625 C 24.101562 19.625 24.046875 19.734375 24.046875 19.785156 C 24.046875 20.121094 24.058594 20.097656 23.992188 20.488281 C 23.863281 21.25 23.640625 21.945312 23.34375 22.644531 C 23.316406 22.710938 23.230469 23.238281 23.183594 23.238281 C 22.996094 23.238281 23.261719 22.863281 23.34375 22.699219 C 23.582031 22.234375 23.753906 21.746094 24.015625 21.296875 C 24.488281 20.480469 24.949219 19.691406 25.503906 18.925781 C 25.667969 18.695312 25.703125 18.234375 25.988281 18.222656 C 26.203125 18.214844 26.011719 18.667969 25.933594 18.871094 C 25.660156 19.582031 25.328125 20.292969 25.089844 21.015625 C 25.078125 21.054688 24.882812 21.675781 24.855469 21.675781 C 24.800781 21.675781 24.839844 21.5625 24.855469 21.511719 C 24.917969 21.320312 25.027344 21.148438 25.125 20.972656 C 25.425781 20.421875 25.644531 19.796875 25.824219 19.195312 C 25.875 19.03125 25.9375 18.871094 25.988281 18.710938 C 26.023438 18.585938 26.167969 18.332031 26.039062 18.332031 C 25.859375 18.332031 25.820312 18.613281 25.71875 18.761719 C 25.5 19.074219 25.3125 19.382812 25.070312 19.679688 C 24.898438 19.890625 24.890625 19.859375 24.691406 20.054688 C 24.664062 20.085938 24.667969 20.191406 24.640625 20.164062 C 24.453125 19.976562 24.902344 19.015625 24.964844 18.816406 C 25.007812 18.667969 24.980469 18.640625 25.015625 18.492188 C 25.039062 18.402344 25.070312 18.132812 25.070312 18.222656 C 25.070312 18.636719 24.769531 18.875 24.632812 19.226562 C 24.558594 19.410156 24.425781 19.785156 24.425781 19.785156 L 24.425781 19.464844 C 24.425781 19.253906 24.394531 19.023438 24.425781 18.816406 C 24.445312 18.671875 24.476562 18.386719 24.476562 18.386719 C 24.476562 18.386719 24.378906 18.710938 24.316406 18.871094 C 24.234375 19.074219 24.175781 19.324219 24.101562 19.515625 C 24.054688 19.628906 23.9375 19.960938 23.9375 19.839844 C 23.9375 19.441406 23.953125 19.050781 23.992188 18.65625 C 24.015625 18.421875 24.046875 18.445312 24.101562 18.222656 L 24.101562 18.117188 C 24.101562 18.757812 23.859375 19.25 23.613281 19.839844 C 23.039062 21.234375 22.394531 22.59375 21.835938 23.992188 C 21.574219 24.640625 21.234375 25.335938 21.046875 26.015625 C 20.949219 26.371094 20.964844 26.351562 20.863281 26.6875 C 20.84375 26.757812 20.8125 26.976562 20.8125 26.902344 C 20.8125 26.660156 20.953125 26.425781 21.027344 26.203125 C 21.316406 25.332031 21.675781 24.476562 21.996094 23.613281 C 22.148438 23.214844 22.320312 22.824219 22.484375 22.429688 C 22.535156 22.300781 22.59375 22.179688 22.644531 22.050781 C 22.683594 21.953125 22.730469 21.707031 22.804688 21.78125 C 22.96875 21.945312 22.625 22.683594 22.558594 22.839844 C 22.375 23.265625 22.355469 23.765625 22.214844 24.207031 C 22.023438 24.808594 21.726562 25.449219 21.726562 26.09375 C 21.726562 26.167969 21.726562 25.949219 21.726562 25.878906 C 21.726562 25.613281 21.714844 25.515625 21.78125 25.230469 C 21.976562 24.398438 22.285156 23.617188 22.535156 22.804688 C 22.632812 22.492188 22.664062 22.152344 22.753906 21.835938 C 22.777344 21.746094 22.804688 21.472656 22.804688 21.566406 C 22.804688 21.976562 22.828125 22.394531 22.804688 22.804688 C 22.773438 23.332031 22.644531 23.84375 22.644531 24.371094 C 22.644531 24.445312 22.667969 24.222656 22.699219 24.152344 C 22.867188 23.773438 22.898438 23.808594 23.074219 23.453125 C 23.351562 22.902344 23.621094 22.339844 23.882812 21.78125 C 23.90625 21.738281 24.195312 20.859375 24.371094 20.863281 C 24.585938 20.871094 24.359375 21.300781 24.316406 21.511719 C 24.164062 22.210938 23.9375 22.882812 23.722656 23.5625 C 23.617188 23.894531 23.609375 24.269531 23.453125 24.582031 C 23.445312 24.601562 23.316406 25.042969 23.289062 24.964844 C 23.097656 24.378906 23.792969 23.246094 23.992188 22.753906 C 24.105469 22.46875 24.203125 22.175781 24.316406 21.890625 C 24.34375 21.820312 24.371094 21.601562 24.371094 21.675781 C 24.371094 22.15625 24.308594 22.550781 24.207031 23.023438 C 24.15625 23.253906 24.1875 23.746094 23.992188 23.9375 C 23.910156 24.019531 24.054688 23.71875 24.101562 23.613281 C 24.238281 23.300781 24.335938 23 24.441406 22.671875 C 24.652344 22.046875 24.945312 21.429688 25.179688 20.8125 C 25.222656 20.699219 25.296875 20.601562 25.339844 20.488281 C 25.375 20.398438 25.351562 20.21875 25.449219 20.21875 C 25.628906 20.21875 25.425781 20.578125 25.394531 20.757812 C 25.308594 21.230469 25.242188 21.695312 25.125 22.160156 C 25.066406 22.394531 25.070312 22.375 25.070312 22.589844 C 25.070312 22.625 25.070312 22.734375 25.070312 22.699219 C 25.070312 21.878906 25.410156 21.105469 25.773438 20.378906 C 25.835938 20.25 25.925781 20.132812 25.988281 20.003906 C 26.035156 19.894531 26.0625 19.59375 26.148438 19.679688 C 26.175781 19.707031 26.152344 20.09375 26.148438 20.109375 C 26.09375 20.621094 25.914062 21.179688 25.773438 21.675781 C 25.738281 21.78125 25.695312 21.890625 25.664062 21.996094 C 25.632812 22.101562 25.609375 22.429688 25.609375 22.320312 C 25.609375 21.324219 26.183594 20.382812 26.441406 19.433594 C 26.527344 19.117188 26.675781 18.847656 26.796875 18.546875 C 26.839844 18.441406 26.867188 18.332031 26.902344 18.222656 C 26.925781 18.152344 26.957031 17.933594 26.957031 18.007812 C 26.957031 18.863281 26.726562 19.613281 26.527344 20.433594 C 26.464844 20.679688 26.4375 20.996094 26.417969 21.242188 C 26.410156 21.332031 26.429688 21.421875 26.417969 21.511719 C 26.410156 21.566406 26.363281 21.730469 26.363281 21.675781 C 26.363281 20.988281 26.476562 20.476562 26.6875 19.839844 C 26.78125 19.5625 26.765625 19.578125 26.902344 19.300781 C 26.929688 19.25 26.957031 19.082031 26.957031 19.140625 C 26.957031 19.84375 26.875 20.542969 26.796875 21.242188 C 26.769531 21.476562 26.6875 21.945312 26.6875 21.945312 C 26.6875 21.945312 26.8125 21.433594 26.902344 21.1875 C 27.09375 20.679688 27.324219 20.195312 27.496094 19.679688 C 27.652344 19.214844 27.632812 19.230469 27.820312 18.761719 C 27.855469 18.671875 27.859375 18.425781 27.929688 18.492188 C 28.066406 18.628906 27.929688 19.578125 27.929688 19.785156 C 27.929688 20.019531 27.875 20.488281 27.875 20.488281 C 27.875 20.488281 27.859375 20.269531 27.875 20.164062 C 27.917969 19.863281 27.984375 19.902344 28.089844 19.625 C 28.226562 19.269531 28.574219 18.707031 28.574219 18.332031 C 28.574219 18.277344 28.574219 18.4375 28.574219 18.492188 L 28.574219 20.597656 C 28.574219 20.597656 28.558594 20.246094 28.621094 20.085938 C 28.785156 19.675781 28.964844 19.285156 29.113281 18.871094 C 29.144531 18.789062 29.476562 18.261719 29.492188 18.277344 C 29.515625 18.300781 29.492188 18.589844 29.492188 18.601562 L 29.492188 19.625 C 29.492188 19.785156 29.328125 20.109375 29.492188 20.109375 C 29.636719 20.109375 29.65625 19.867188 29.707031 19.734375 C 29.8125 19.457031 29.980469 18.984375 30.140625 18.761719 C 30.195312 18.679688 30.191406 19.121094 30.191406 19.140625 L 30.191406 19.785156 C 30.191406 19.914062 30.105469 20.074219 30.191406 20.164062 C 30.195312 20.164062 30.347656 20.019531 30.355469 20.003906 C 30.453125 19.730469 30.511719 19.144531 30.730469 18.925781 C 30.808594 18.847656 30.730469 19.140625 30.730469 19.246094 L 30.730469 20.488281 C 30.730469 20.488281 30.808594 20.164062 30.839844 20.003906 C 30.894531 19.71875 31.042969 19.628906 31.21875 19.410156 C 31.234375 19.386719 31.308594 19.125 31.378906 19.195312 C 31.582031 19.394531 31.320312 20.441406 31.21875 20.648438 C 31.132812 20.816406 30.945312 21.136719 30.945312 21.136719 C 30.945312 21.136719 30.960938 20.878906 31 20.757812 C 31.078125 20.527344 31.160156 20.382812 31.269531 20.164062 C 31.339844 20.027344 31.472656 19.648438 31.539062 19.785156 C 31.839844 20.382812 31.226562 20.957031 31.003906 21.402344 C 30.894531 21.625 30.753906 21.691406 30.570312 21.78125 C 30.488281 21.820312 30.355469 22.03125 30.355469 21.945312 C 30.355469 21.59375 30.382812 21.308594 30.515625 20.972656 C 30.605469 20.753906 30.628906 20.785156 30.679688 20.542969 C 30.6875 20.503906 30.769531 20.414062 30.730469 20.433594 C 30.546875 20.527344 30.242188 21.03125 30.085938 21.1875 C 29.640625 21.632812 29.160156 22.039062 28.628906 22.375 C 28.15625 22.675781 28.148438 22.632812 27.660156 22.914062 C 27.433594 23.042969 27.011719 23.34375 27.011719 23.34375 C 27.011719 23.34375 27.0625 23.121094 27.117188 23.023438 C 27.261719 22.769531 27.359375 22.503906 27.535156 22.269531 C 28.035156 21.601562 28.734375 21.058594 29.382812 20.542969 C 29.53125 20.421875 29.8125 20.246094 29.976562 20.109375 C 30.027344 20.070312 30.09375 19.957031 30.140625 20.003906 C 30.261719 20.128906 29.769531 20.746094 29.660156 20.855469 C 28.941406 21.574219 28.523438 22.492188 27.546875 22.980469 C 27.46875 23.019531 26.765625 23.425781 26.742188 23.398438 C 26.675781 23.332031 26.839844 23.132812 26.875 23.101562 C 27.144531 22.828125 27.414062 22.558594 27.683594 22.285156 C 28.433594 21.539062 29.507812 20.96875 30.40625 20.433594 C 30.847656 20.175781 30.851562 20.214844 31.324219 20.003906 C 31.414062 19.964844 31.59375 19.796875 31.59375 19.894531 C 31.59375 19.921875 31.113281 20.492188 31.035156 20.574219 C 30.402344 21.207031 29.613281 21.671875 28.871094 22.164062 C 28.519531 22.398438 28.101562 22.585938 27.710938 22.753906 C 27.507812 22.839844 27.503906 22.789062 27.3125 22.914062 C 27.300781 22.921875 27.066406 23.039062 27.066406 22.96875 C 27.066406 22.820312 27.511719 22.425781 27.605469 22.320312 C 28.125 21.738281 28.703125 21.171875 29.328125 20.703125 L 30.300781 20.054688 C 30.402344 19.992188 30.515625 19.949219 30.625 19.894531 C 30.675781 19.867188 30.785156 19.785156 30.785156 19.839844 C 30.785156 19.941406 30.640625 19.984375 30.570312 20.054688 C 30.292969 20.335938 29.996094 20.597656 29.707031 20.863281 C 28.855469 21.652344 27.847656 22.226562 26.851562 22.804688 C 26.589844 22.957031 26.105469 23.34375 25.773438 23.34375 C 25.714844 23.34375 25.796875 23.230469 25.824219 23.183594 C 25.921875 23.023438 26 22.855469 26.09375 22.699219 C 26.320312 22.324219 26.582031 21.910156 26.851562 21.566406 C 26.878906 21.527344 27.289062 21.097656 27.335938 21.1875 C 27.578125 21.671875 26.523438 22.425781 26.308594 22.679688 C 26.136719 22.875 25.933594 22.957031 25.757812 23.136719 C 25.6875 23.203125 25.554688 23.441406 25.554688 23.34375 C 25.554688 23.195312 25.980469 22.867188 26.039062 22.804688 C 26.402344 22.445312 26.796875 22.128906 27.171875 21.78125 C 27.476562 21.5 27.445312 21.484375 27.765625 21.242188 C 27.832031 21.195312 27.980469 21.054688 27.980469 21.136719 C 27.980469 21.199219 27.652344 21.46875 27.605469 21.511719 C 27.140625 21.925781 26.742188 22.371094 26.257812 22.753906 L 25.609375 23.289062 C 25.5 23.378906 25.285156 23.5625 25.285156 23.5625 C 25.285156 23.5625 25.394531 23.417969 25.449219 23.34375 C 25.574219 23.167969 25.695312 22.980469 25.824219 22.804688 C 26.222656 22.277344 26.640625 21.796875 27.117188 21.351562 C 27.144531 21.328125 27.59375 20.804688 27.710938 20.863281 C 27.820312 20.921875 27.640625 21.441406 27.621094 21.476562 C 27.375 22.035156 26.992188 22.480469 26.632812 22.96875 C 25.804688 24.097656 24.871094 25.050781 23.777344 25.933594 C 23.386719 26.246094 22.996094 26.558594 22.589844 26.851562 C 22.226562 27.113281 22.21875 27.070312 21.835938 27.28125 C 21.757812 27.324219 21.621094 27.441406 21.621094 27.441406 C 21.621094 27.441406 21.691406 27.140625 21.777344 27.015625 C 21.984375 26.699219 21.976562 26.714844 22.160156 26.363281 C 22.5625 25.578125 22.972656 24.921875 23.507812 24.207031 C 23.652344 24.015625 23.738281 23.804688 23.914062 23.632812 C 24 23.542969 24.152344 23.222656 24.152344 23.34375 C 24.152344 23.722656 23.722656 24.097656 23.507812 24.371094 C 23.132812 24.847656 22.777344 25.375 22.34375 25.804688 C 22.09375 26.054688 22.117188 26.054688 21.890625 26.3125 C 21.777344 26.433594 21.566406 26.6875 21.566406 26.6875 C 21.566406 26.6875 21.6875 26.453125 21.78125 26.363281 C 22.078125 26.074219 22.054688 26.085938 22.320312 25.773438 C 22.769531 25.238281 23.308594 24.714844 23.863281 24.28125 C 23.933594 24.226562 24.5625 23.578125 24.671875 23.6875 C 24.851562 23.867188 24.332031 24.433594 24.261719 24.53125 C 23.980469 24.933594 23.652344 25.28125 23.34375 25.664062 C 23.175781 25.875 23.015625 26.089844 22.859375 26.3125 C 22.8125 26.375 22.753906 26.527344 22.753906 26.527344 C 22.753906 26.527344 22.902344 26.082031 23.023438 25.878906 C 23.242188 25.496094 23.492188 25.121094 23.722656 24.746094 C 23.753906 24.699219 24.164062 23.882812 24.261719 23.882812 C 24.355469 23.882812 24.1875 24.515625 24.136719 24.585938 C 23.847656 24.96875 23.609375 25.375 23.34375 25.773438 C 23.335938 25.785156 23.085938 26.105469 23.128906 26.148438 C 23.308594 26.328125 23.730469 25.9375 23.832031 25.878906 C 24.601562 25.410156 25.402344 24.988281 26.148438 24.476562 C 26.539062 24.210938 26.6875 24.117188 27.011719 23.832031 C 27.078125 23.769531 27.226562 23.578125 27.226562 23.667969 C 27.226562 23.757812 26.996094 24.050781 26.957031 24.101562 C 26.621094 24.53125 26.363281 24.9375 25.933594 25.285156 C 25.636719 25.527344 25.367188 25.800781 25.070312 26.039062 C 24.84375 26.226562 24.824219 26.175781 24.585938 26.363281 C 24.542969 26.398438 23.96875 26.960938 23.9375 26.902344 C 23.828125 26.6875 24.109375 26.34375 24.207031 26.203125 C 24.613281 25.625 25.058594 25.085938 25.554688 24.585938 C 25.621094 24.519531 25.996094 24.046875 26.148438 24.046875 C 26.171875 24.046875 25.835938 24.941406 25.824219 24.964844 C 25.4375 25.851562 24.910156 26.710938 24.425781 27.550781 C 24.253906 27.84375 24.058594 28.125 23.882812 28.414062 C 23.867188 28.445312 23.710938 28.777344 23.667969 28.738281 C 23.515625 28.582031 23.835938 28.335938 23.9375 28.144531 C 24.320312 27.425781 24.757812 26.8125 25.285156 26.203125 C 25.378906 26.097656 25.46875 25.988281 25.554688 25.878906 C 25.636719 25.78125 25.710938 25.550781 25.824219 25.609375 C 25.886719 25.640625 25.609375 26.257812 25.609375 26.257812 C 25.390625 26.832031 25.167969 27.402344 24.964844 27.980469 C 24.855469 28.285156 24.875 28.316406 24.800781 28.574219 C 24.78125 28.644531 24.746094 28.863281 24.746094 28.789062 C 24.746094 28.515625 24.867188 28.300781 24.964844 28.035156 C 25.015625 27.890625 25.070312 27.746094 25.125 27.605469 C 25.289062 27.183594 25.277344 27.195312 25.480469 26.792969 C 25.695312 26.363281 25.773438 25.875 25.988281 25.449219 C 26.019531 25.382812 25.988281 25.59375 25.988281 25.664062 L 25.988281 26.363281 C 25.988281 27.195312 25.960938 28.027344 25.773438 28.84375 C 25.722656 29.050781 25.765625 29.4375 25.554688 29.4375 C 25.457031 29.4375 25.675781 28.621094 25.695312 28.570312 C 25.945312 27.894531 26.128906 27.066406 26.3125 26.363281 C 26.417969 25.945312 26.6875 25.457031 26.6875 25.015625 C 26.6875 24.945312 26.6875 25.160156 26.6875 25.230469 L 26.6875 25.503906 C 26.6875 25.964844 26.683594 25.945312 26.632812 26.417969 C 26.535156 27.355469 26.257812 28.335938 26.257812 29.277344 C 26.257812 29.347656 26.246094 29.132812 26.257812 29.058594 C 26.285156 28.828125 26.308594 28.851562 26.308594 28.632812 C 26.308594 28.164062 26.578125 27.691406 26.578125 27.226562 C 26.578125 27.15625 26.578125 27.371094 26.578125 27.441406 C 26.578125 27.800781 26.589844 27.785156 26.527344 28.144531 C 26.40625 28.8125 26.292969 29.464844 26.203125 30.140625 C 26.171875 30.371094 26.09375 30.839844 26.09375 30.839844 C 26.09375 30.839844 26.121094 30.371094 26.148438 30.140625 C 26.1875 29.816406 26.214844 29.492188 26.257812 29.167969 C 26.269531 29.058594 26.285156 28.949219 26.3125 28.84375 C 26.332031 28.753906 26.363281 28.484375 26.363281 28.574219 L 26.363281 31.648438 C 26.363281 31.144531 26.546875 30.601562 26.578125 30.085938 C 26.601562 29.757812 26.59375 29.769531 26.632812 29.4375 C 26.644531 29.347656 26.632812 29.167969 26.632812 29.167969 C 26.632812 29.167969 26.609375 29.601562 26.578125 29.816406 C 26.5 30.410156 26.390625 30.996094 26.3125 31.59375 C 26.273438 31.871094 26.292969 31.859375 26.203125 32.132812 C 26.179688 32.203125 26.148438 32.347656 26.148438 32.347656 C 26.148438 32.347656 26.171875 31.914062 26.203125 31.703125 C 26.261719 31.308594 26.335938 30.914062 26.363281 30.515625 C 26.371094 30.425781 26.351562 30.335938 26.363281 30.246094 C 26.375 30.171875 26.417969 29.957031 26.417969 30.03125 C 26.417969 30.160156 26.378906 31.242188 26.527344 31.21875 C 26.738281 31.183594 26.929688 30.09375 26.957031 29.867188 C 26.976562 29.726562 26.957031 29.4375 26.957031 29.4375 L 26.957031 30.191406 C 26.957031 30.542969 26.882812 30.871094 26.851562 31.21875 C 26.835938 31.394531 26.851562 31.757812 26.851562 31.757812 L 26.851562 31.164062 C 26.851562 30.625 26.925781 30.085938 26.957031 29.546875 C 26.972656 29.277344 27.011719 28.738281 27.011719 28.738281 L 27.011719 30.679688 C 27.011719 30.757812 26.96875 31.269531 27.066406 31.269531 C 27.164062 31.269531 27.222656 30.90625 27.226562 30.894531 C 27.289062 30.605469 27.347656 30.320312 27.390625 30.03125 C 27.390625 30.007812 27.355469 29.652344 27.441406 29.652344 C 27.621094 29.652344 27.441406 30.011719 27.441406 30.191406 L 27.441406 31.648438 C 27.441406 31.808594 27.28125 32.132812 27.441406 32.132812 C 27.546875 32.132812 27.496094 31.808594 27.496094 31.757812 L 27.496094 30.839844 C 27.496094 30.839844 27.53125 30.441406 27.496094 30.40625 C 27.398438 30.3125 27.378906 30.65625 27.335938 30.785156 C 27.222656 31.113281 27.140625 31.453125 26.957031 31.757812 C 26.902344 31.851562 26.796875 32.132812 26.6875 31.972656 C 26.300781 31.390625 26.222656 30.367188 26.039062 29.707031 C 25.949219 29.367188 25.867188 29.023438 25.773438 28.683594 C 25.726562 28.519531 25.609375 28.199219 25.609375 28.199219 L 25.609375 28.519531 C 25.609375 28.777344 25.652344 29.078125 25.609375 29.328125 C 25.605469 29.347656 25.523438 29.75 25.503906 29.707031 C 25.359375 29.425781 25.339844 28.941406 25.285156 28.628906 C 25.242188 28.359375 25.179688 27.820312 25.179688 27.820312 C 25.179688 27.820312 25.121094 28.359375 25.125 28.628906 C 25.128906 29.089844 25.019531 29.519531 24.964844 29.976562 C 24.921875 30.308594 24.910156 30.285156 24.910156 30.625 C 24.910156 30.714844 24.910156 30.984375 24.910156 30.894531 C 24.910156 29.476562 25.242188 28.171875 25.398438 26.785156 C 25.453125 26.292969 25.59375 25.820312 25.640625 25.332031 C 25.660156 25.117188 25.71875 24.691406 25.71875 24.691406 L 25.71875 29.492188 C 25.71875 29.546875 25.71875 29.382812 25.71875 29.328125 L 25.71875 28.898438 C 25.71875 28.394531 25.644531 27.925781 25.503906 27.441406 C 25.46875 27.332031 25.335938 27.070312 25.285156 27.171875 C 25.007812 27.765625 24.8125 28.519531 24.640625 29.167969 C 24.550781 29.496094 24.5625 29.472656 24.476562 29.816406 C 24.453125 29.910156 24.4375 30.152344 24.371094 30.085938 C 24.328125 30.046875 24.371094 29.519531 24.371094 29.492188 C 24.371094 29.0625 24.320312 28.621094 24.261719 28.199219 C 24.25 28.109375 24.324219 27.992188 24.261719 27.929688 C 24.171875 27.839844 24.207031 28.179688 24.207031 28.304688 L 24.207031 29.222656 C 24.207031 29.292969 24.28125 29.4375 24.207031 29.4375 C 24.101562 29.4375 24.152344 28.953125 24.152344 28.953125 C 24.152344 28.507812 24.355469 27.519531 24.152344 27.117188 C 24.125 27.0625 24.066406 27.21875 24.046875 27.28125 C 23.953125 27.558594 24.019531 27.546875 23.992188 27.820312 C 23.953125 28.210938 23.902344 28.617188 23.832031 29.007812 C 23.796875 29.199219 23.777344 29.183594 23.777344 29.382812 C 23.777344 29.421875 23.777344 29.527344 23.777344 29.492188 C 23.777344 28.753906 23.832031 28.019531 23.832031 27.28125 L 23.832031 25.933594 L 23.832031 27.171875 C 23.832031 27.914062 23.75 28.648438 23.667969 29.382812 C 23.628906 29.765625 23.609375 29.742188 23.5625 30.140625 C 23.550781 30.226562 23.5625 30.40625 23.5625 30.40625 L 23.5625 29.761719 C 23.5625 29.246094 23.570312 29.269531 23.613281 28.738281 C 23.6875 27.871094 23.832031 26.960938 23.832031 26.09375 C 23.832031 26.023438 23.832031 26.238281 23.832031 26.3125 L 23.832031 26.742188 C 23.800781 27.035156 23.699219 27.3125 23.667969 27.605469 C 23.652344 27.753906 23.5625 28.035156 23.5625 28.035156 L 23.5625 27.441406 C 23.5625 27.019531 23.523438 26.621094 23.453125 26.203125 C 23.421875 26.023438 23.527344 25.789062 23.398438 25.664062 C 23.339844 25.605469 23.183594 26.527344 23.183594 26.527344 C 23.085938 27.023438 22.894531 27.480469 22.804688 27.980469 C 22.765625 28.214844 22.726562 28.449219 22.699219 28.683594 C 22.6875 28.753906 22.699219 28.898438 22.699219 28.898438 L 22.699219 26.902344 C 22.699219 26.890625 22.722656 26.605469 22.699219 26.578125 C 22.578125 26.460938 22.570312 26.898438 22.535156 27.066406 C 22.503906 27.226562 22.457031 27.386719 22.429688 27.550781 C 22.328125 28.152344 22.214844 28.828125 22.214844 29.4375 C 22.214844 29.492188 22.214844 29.328125 22.214844 29.277344 L 22.214844 27.28125 C 22.214844 27.269531 22.246094 26.996094 22.160156 26.957031 C 22.117188 26.941406 22.066406 27.25 22.054688 27.277344 C 21.960938 27.464844 21.886719 27.726562 21.835938 27.929688 C 21.796875 28.078125 21.824219 28.066406 21.78125 28.199219 L 21.78125 28.304688 L 21.78125 26.796875 C 21.78125 26.722656 21.832031 26.527344 21.78125 26.578125 C 21.597656 26.765625 21.617188 27.503906 21.566406 27.765625 C 21.53125 27.941406 21.511719 28.304688 21.511719 28.304688 L 21.511719 26.3125 C 21.398438 26.3125 21.425781 26.523438 21.402344 26.632812 C 21.300781 27.148438 21.261719 27.679688 21.1875 28.199219 C 21.171875 28.304688 21.144531 28.410156 21.136719 28.519531 C 21.125 28.628906 21.136719 28.953125 21.136719 28.84375 L 21.136719 25.878906 C 21.136719 25.609375 21.230469 25.03125 21.136719 24.746094 C 21.089844 24.609375 20.320312 24.699219 20.21875 24.691406 C 19.769531 24.675781 19.5 25.035156 19.195312 25.339844 C 18.742188 25.789062 18.257812 26.199219 17.792969 26.632812 C 17.539062 26.867188 17.324219 27.089844 17.035156 27.28125 C 16.949219 27.339844 16.84375 27.515625 16.769531 27.441406 C 16.550781 27.226562 16.769531 26.828125 16.820312 26.527344 C 16.972656 25.679688 17.324219 24.71875 17.738281 23.957031 C 17.945312 23.574219 17.9375 23.589844 18.117188 23.183594 C 18.171875 23.058594 18.210938 22.925781 18.277344 22.804688 C 18.3125 22.738281 18.4375 22.566406 18.4375 22.644531 C 18.4375 22.90625 18.203125 23.277344 18.117188 23.507812 C 17.832031 24.242188 17.402344 24.875 17.082031 25.589844 C 16.960938 25.871094 16.820312 26.109375 16.660156 26.363281 C 16.566406 26.515625 16.445312 26.851562 16.445312 26.851562 C 16.445312 26.851562 16.460938 26.523438 16.496094 26.363281 C 16.5625 26.109375 16.59375 25.867188 16.660156 25.609375 C 16.691406 25.484375 16.675781 25.140625 16.769531 25.230469 C 16.890625 25.355469 16.703125 25.921875 16.660156 26.039062 C 16.3125 27.007812 16.046875 27.992188 15.6875 28.953125 C 15.609375 29.171875 15.382812 29.78125 15.3125 30.03125 C 15.285156 30.117188 15.28125 30.210938 15.257812 30.300781 C 15.238281 30.371094 15.203125 30.589844 15.203125 30.515625 C 15.203125 30.023438 15.359375 29.558594 15.582031 29.113281 C 15.660156 28.957031 15.796875 28.628906 15.796875 28.628906 C 15.796875 28.628906 15.785156 28.851562 15.742188 28.953125 C 15.683594 29.09375 15.617188 29.300781 15.503906 29.410156 C 14.953125 29.960938 14.644531 30.21875 13.910156 30.460938 C 13.777344 30.507812 13.402344 30.695312 13.261719 30.625 C 13.132812 30.558594 13.210938 30.101562 13.210938 29.976562 C 13.210938 29.886719 13.15625 29.707031 13.15625 29.707031 L 13.15625 30.894531 C 13.15625 30.894531 13.175781 31.34375 13.101562 31.269531 C 12.945312 31.113281 13.195312 30.597656 13.261719 30.460938 C 13.3125 30.359375 13.480469 30.191406 13.480469 30.191406 L 13.480469 30.515625 C 13.480469 30.753906 13.410156 30.933594 13.371094 31.164062 C 13.351562 31.269531 13.316406 31.488281 13.316406 31.488281 C 13.316406 31.488281 13.367188 31.261719 13.425781 31.164062 C 13.566406 30.914062 13.726562 30.726562 13.855469 30.460938 C 14.273438 29.625 14.71875 28.835938 15.203125 28.035156 C 17.132812 24.863281 18.871094 21.492188 18.871094 17.683594 L 18.871094 15.421875 C 18.871094 15.203125 18.949219 14.730469 18.710938 14.609375 C 18.480469 14.496094 18.132812 15.132812 18.0625 15.257812 C 17.722656 15.855469 17.382812 16.445312 17.035156 17.035156 C 16.847656 17.359375 16.640625 18.027344 16.390625 18.277344 C 16.320312 18.347656 16.335938 17.800781 16.335938 17.792969 C 16.371094 17.453125 16.441406 17.101562 16.496094 16.769531 C 16.511719 16.675781 16.539062 16.589844 16.550781 16.496094 C 16.558594 16.445312 16.589844 16.296875 16.550781 16.335938 C 16.4375 16.453125 16.289062 17.085938 16.226562 17.253906 C 16.144531 17.480469 15.90625 17.898438 15.90625 17.898438 C 15.90625 17.898438 15.914062 17.605469 15.960938 17.46875 C 16.035156 17.242188 16.109375 17.035156 16.175781 16.820312 C 16.210938 16.707031 16.335938 16.378906 16.335938 16.496094 C 16.335938 16.972656 16.269531 17.433594 16.175781 17.898438 C 16.167969 17.9375 16 18.300781 16.066406 18.332031 C 16.300781 18.449219 16.558594 18.054688 16.660156 17.953125 C 17.300781 17.324219 17.847656 16.535156 18.4375 15.851562 C 18.539062 15.734375 18.65625 15.636719 18.761719 15.527344 C 18.855469 15.4375 19.046875 15.1875 19.085938 15.3125 C 19.210938 15.6875 19.09375 16.335938 19.066406 16.730469 C 18.976562 18.082031 18.710938 19.398438 18.65625 20.757812 C 18.628906 21.351562 18.570312 21.941406 18.546875 22.535156 C 18.539062 22.734375 18.546875 22.933594 18.546875 23.128906 L 18.546875 23.507812 C 18.546875 23.507812 18.609375 23.285156 18.65625 23.183594 C 18.785156 22.898438 18.90625 22.609375 19.03125 22.320312 C 19.378906 21.515625 19.792969 20.773438 20.21875 20.003906 C 20.523438 19.449219 20.851562 18.894531 21.136719 18.332031 C 21.179688 18.246094 21.144531 18.0625 21.242188 18.0625 C 21.421875 18.0625 21.242188 18.421875 21.242188 18.601562 C 21.242188 19.238281 21.199219 19.851562 21.136719 20.488281 C 21.089844 20.925781 21.117188 20.910156 21.082031 21.351562 C 21.070312 21.460938 21.027344 21.78125 21.027344 21.675781 C 21.027344 20.550781 21.457031 19.445312 21.457031 18.332031 C 21.457031 18.277344 21.457031 18.4375 21.457031 18.492188 L 21.457031 22.265625 C 21.457031 22.519531 21.28125 22.84375 21.457031 23.023438 C 21.476562 23.039062 21.53125 22.476562 21.566406 22.378906 C 21.726562 21.894531 21.78125 21.320312 21.835938 20.8125 C 21.875 20.433594 21.859375 20.402344 21.945312 20.109375 C 21.964844 20.039062 21.996094 19.820312 21.996094 19.894531 C 21.996094 20.617188 22.050781 21.332031 22.050781 22.050781 "/>
</g>
</svg>
