<?xml version="1.0" encoding="UTF-8"?>
<svg xmlns="http://www.w3.org/2000/svg" xmlns:xlink="http://www.w3.org/1999/xlink" width="40px" height="40px" viewBox="0 0 40 40" version="1.1">
<g id="surface1">
<path style="fill-rule:nonzero;fill:rgb(100%,100%,100%);fill-opacity:1;stroke-width:2;stroke-linecap:round;stroke-linejoin:round;stroke:rgb(100%,100%,100%);stroke-opacity:1;stroke-miterlimit:4;" d="M 11.999976 5.999988 C 10.19998 3.902336 7.192954 3.255462 4.938271 5.17499 C 2.683588 7.094517 2.367183 10.305448 4.13671 12.576537 C 5.610926 14.465596 10.064042 18.447619 11.524196 19.736679 C 11.688258 19.881991 11.770289 19.952304 11.864039 19.980429 C 11.948414 20.00621 12.03982 20.00621 12.121851 19.980429 C 12.217944 19.952304 12.299975 19.881991 12.461694 19.736679 C 13.921847 18.447619 18.377307 14.465596 19.849179 12.576537 C 21.621051 10.305448 21.342145 7.075767 19.047618 5.17499 C 16.755435 3.274212 13.799972 3.902336 11.999976 5.999988 Z M 11.999976 5.999988 " transform="matrix(1.66667,0,0,1.66667,0,0)"/>
</g>
</svg>
