<?xml version="1.0" encoding="UTF-8" standalone="no"?>
<!DOCTYPE svg PUBLIC "-//W3C//DTD SVG 1.1//EN" "http://www.w3.org/Graphics/SVG/1.1/DTD/svg11.dtd">
<svg width="100%" height="100%" viewBox="0 0 3840 2160" version="1.1" xmlns="http://www.w3.org/2000/svg" xmlns:xlink="http://www.w3.org/1999/xlink" xml:space="preserve" xmlns:serif="http://www.serif.com/" style="fill-rule:evenodd;clip-rule:evenodd;stroke-linecap:round;stroke-linejoin:round;stroke-miterlimit:1.5;">
    <g id="Emblema-chapa" serif:id="Emblema chapa" transform="matrix(2.32104,0,0,3.24202,-313.718,-664.216)">
        <g transform="matrix(4.55814,0,1.38778e-17,5.92456,-1155.84,-742.248)">
            <path d="M431.606,196.679L504.997,196.679L504.997,238.558L469.166,247.898L431.606,238.558L431.606,196.679Z" style="fill:white;"/>
            <path d="M431.606,195.607C430.558,195.607 429.709,196.087 429.709,196.679L429.709,238.558C429.709,238.983 430.153,239.368 430.842,239.539L468.402,248.879C468.9,249.003 469.467,249 469.961,248.871L505.792,239.531C506.464,239.356 506.894,238.976 506.894,238.558L506.894,196.679C506.894,196.087 506.045,195.607 504.997,195.607L431.606,195.607ZM431.606,196.679L504.997,196.679L504.997,238.558L469.166,247.898L431.606,238.558L431.606,196.679Z" style="fill:rgb(11,9,24);"/>
        </g>
        <g transform="matrix(-4.55814,6.63499e-17,1.50174e-16,-4.81743,3113.32,1534.13)">
            <path d="M431.606,196.679L504.997,196.679L504.997,238.558L469.166,247.898L431.606,238.558L431.606,196.679Z" style="fill:white;"/>
            <path d="M431.606,195.607C430.558,195.607 429.709,196.087 429.709,196.679L429.709,238.558C429.709,238.983 430.153,239.368 430.842,239.539L468.402,248.879C468.9,249.003 469.467,249 469.961,248.871L505.792,239.531C506.464,239.356 506.894,238.976 506.894,238.558L506.894,196.679C506.894,196.087 506.045,195.607 504.997,195.607L431.606,195.607ZM431.606,196.679L504.997,196.679L504.997,238.558L469.166,247.898L431.606,238.558L431.606,196.679Z" style="fill:rgb(11,9,24);"/>
        </g>
    </g>
    <g id="Emblema-chapa1" serif:id="Emblema chapa" transform="matrix(2,0,0,3.00634,0,-545.886)">
        <g transform="matrix(4.55814,0,1.38778e-17,5.86075,-1155.84,-729.721)">
            <path d="M431.606,195.066C429.91,195.066 428.534,195.788 428.534,196.679L428.534,238.558C428.534,239.182 429.218,239.749 430.291,240.016L467.851,249.355C468.702,249.567 469.689,249.562 470.532,249.342L506.363,240.003C507.408,239.73 508.068,239.171 508.068,238.558L508.068,196.679C508.068,195.788 506.693,195.066 504.997,195.066L431.606,195.066ZM431.606,196.679L504.997,196.679L504.997,238.558L469.166,247.898L431.606,238.558L431.606,196.679Z" style="fill:rgb(11,9,24);"/>
        </g>
        <g transform="matrix(-4.55814,6.77311e-17,1.80067e-16,-4.72291,3113.32,1518.24)">
            <path d="M431.606,195.066C429.91,195.066 428.534,195.788 428.534,196.679L428.534,238.558C428.534,239.182 429.218,239.749 430.291,240.016L467.851,249.355C468.702,249.567 469.689,249.562 470.532,249.342L506.363,240.003C507.408,239.73 508.068,239.171 508.068,238.558L508.068,196.679C508.068,195.788 506.693,195.066 504.997,195.066L431.606,195.066ZM431.606,196.679L504.997,196.679L504.997,238.558L469.166,247.898L431.606,238.558L431.606,196.679Z" style="fill:rgb(11,9,24);"/>
        </g>
    </g>
    <g id="Emblema-interior" serif:id="Emblema interior" transform="matrix(2,0,0,2.01384,0,-9.9531)">
        <g transform="matrix(4.55814,0,1.38778e-17,5.77647,-1155.84,-713.28)">
            <path d="M431.606,196.679L504.997,196.679L504.997,238.558L469.166,247.898C475.186,249.535 450.803,243.382 431.606,238.558L431.606,196.679Z" style="fill:white;"/>
        </g>
        <g transform="matrix(-4.55814,0,-1.38778e-17,-5.77647,3113.32,1723.75)">
            <path d="M431.606,196.679L504.997,196.679L504.997,238.558L469.166,247.898L431.606,238.558L431.606,196.679Z" style="fill:white;"/>
        </g>
    </g>
    <g id="Laterales" transform="matrix(2,0,0,2,1.97081,-27.5914)">
        <g transform="matrix(-0.00330009,-0.313287,0.946388,-0.316012,87.4715,1095.26)">
            <rect x="652.831" y="462.245" width="669.767" height="164.747" style="fill:rgb(11,9,24);"/>
            <g transform="matrix(0.847321,2.92634e-18,-6.05878e-16,0.834811,148.41,90.6112)">
                <rect x="652.831" y="462.245" width="669.767" height="164.747" style="fill:white;"/>
            </g>
            <rect x="652.831" y="462.245" width="669.767" height="164.747" style="fill:none;stroke:black;stroke-width:1.25px;"/>
        </g>
        <g transform="matrix(0.00330009,-0.313287,-0.946388,-0.316012,1882.04,1093.02)">
            <rect x="652.831" y="462.245" width="669.767" height="164.747" style="fill:rgb(11,9,24);"/>
            <g transform="matrix(0.847321,2.92634e-18,-6.05878e-16,0.834811,148.41,90.6112)">
                <rect x="652.831" y="462.245" width="669.767" height="164.747" style="fill:white;"/>
            </g>
            <rect x="652.831" y="462.245" width="669.767" height="164.747" style="fill:none;stroke:black;stroke-width:1.25px;"/>
        </g>
    </g>
    <g id="Centro" transform="matrix(2,0,0,2,0,0)">
        <rect id="Relleno" x="652.831" y="462.245" width="669.767" height="164.747" style="fill:none;stroke:rgb(11,9,24);stroke-width:20px;"/>
        <rect id="Interior" x="652.831" y="462.245" width="669.767" height="164.747" style="fill:white;stroke:rgb(11,9,24);stroke-width:1px;"/>
    </g>
    <g transform="matrix(2.14592,0,0,2.14592,1426.71,1162.89)">
        <g id="Título-molón" serif:id="Título molón">
            <text x="0px" y="0px" style="font-family:'NotoSans-BoldItalic', 'Noto Sans', sans-serif;font-weight:700;font-style:italic;font-size:96px;fill:rgb(11,9,24);">FILMWOOD</text>
        </g>
    </g>
</svg>
