<?xml version="1.0" encoding="UTF-8"?>
<svg xmlns="http://www.w3.org/2000/svg" xmlns:xlink="http://www.w3.org/1999/xlink" width="42px" height="42px" viewBox="0 0 42 42" version="1.1">
<g id="surface1">
<path style="fill:none;stroke-width:2;stroke-linecap:round;stroke-linejoin:round;stroke:rgb(99.607843%,99.607843%,99.607843%);stroke-opacity:1;stroke-miterlimit:4;" d="M 11.999976 5.999988 C 10.200872 3.901778 7.19195 3.254458 4.93749 5.174097 C 2.68303 7.095968 2.366067 10.305783 4.136152 12.5781 C 5.611596 14.466489 10.064712 18.448624 11.524531 19.736568 C 11.687477 19.881657 11.770066 19.953085 11.863816 19.979871 C 11.948637 20.006656 12.040154 20.006656 12.122744 19.979871 C 12.218726 19.953085 12.299083 19.881657 12.462029 19.736568 C 13.921847 18.448624 18.377195 14.466489 19.848175 12.5781 C 21.620492 10.305783 21.341475 7.075879 19.049069 5.174097 C 16.754431 3.274547 13.79908 3.901778 11.999976 5.999988 Z M 11.999976 5.999988 " transform="matrix(1.750004,0,0,1.750004,0,0)"/>
</g>
</svg>
