<?xml version="1.0" encoding="UTF-8"?>
<svg xmlns="http://www.w3.org/2000/svg" xmlns:xlink="http://www.w3.org/1999/xlink" width="42px" height="42px" viewBox="0 0 42 42" version="1.1">
<g id="surface1">
<path style="fill:none;stroke-width:2;stroke-linecap:round;stroke-linejoin:round;stroke:rgb(100%,100%,100%);stroke-opacity:1;stroke-miterlimit:4;" d="M 11.270089 4.412946 C 11.5 3.892857 11.618304 3.631696 11.776786 3.553571 C 11.917411 3.482143 12.082589 3.482143 12.223214 3.553571 C 12.381696 3.631696 12.497768 3.892857 12.729911 4.412946 L 14.573661 8.549107 C 14.642857 8.700893 14.678571 8.779018 14.729911 8.837054 C 14.776786 8.888393 14.834821 8.930804 14.899554 8.959821 C 14.970982 8.993304 15.055804 9 15.220982 9.017857 L 19.725446 9.493304 C 20.290179 9.553571 20.573661 9.582589 20.698661 9.712054 C 20.808036 9.821429 20.859375 9.979911 20.837054 10.133929 C 20.810268 10.3125 20.600446 10.502232 20.178571 10.881696 L 16.8125 13.915179 C 16.6875 14.026786 16.625 14.084821 16.587054 14.151786 C 16.551339 14.212054 16.529018 14.28125 16.522321 14.350446 C 16.513393 14.430804 16.53125 14.511161 16.566964 14.676339 L 17.506696 19.104911 C 17.622768 19.662946 17.680804 19.941964 17.600446 20.100446 C 17.526786 20.238839 17.392857 20.337054 17.241071 20.361607 C 17.0625 20.390625 16.816964 20.25 16.321429 19.964286 L 12.399554 17.703125 C 12.254464 17.618304 12.180804 17.575893 12.102679 17.560268 C 12.035714 17.544643 11.964286 17.544643 11.897321 17.560268 C 11.819196 17.575893 11.745536 17.618304 11.600446 17.703125 L 7.676339 19.964286 C 7.183036 20.25 6.9375 20.390625 6.758929 20.361607 C 6.604911 20.337054 6.473214 20.238839 6.399554 20.100446 C 6.316964 19.941964 6.377232 19.662946 6.493304 19.104911 L 7.433036 14.676339 C 7.46875 14.511161 7.486607 14.430804 7.477679 14.350446 C 7.470982 14.28125 7.448661 14.212054 7.412946 14.151786 C 7.375 14.084821 7.3125 14.026786 7.1875 13.915179 L 3.821429 10.881696 C 3.399554 10.502232 3.189732 10.3125 3.162946 10.133929 C 3.140625 9.979911 3.191964 9.821429 3.301339 9.712054 C 3.426339 9.582589 3.709821 9.553571 4.274554 9.493304 L 8.779018 9.017857 C 8.944196 9 9.029018 8.993304 9.100446 8.959821 C 9.165179 8.930804 9.223214 8.888393 9.270089 8.837054 C 9.321429 8.779018 9.357143 8.700893 9.426339 8.549107 Z M 11.270089 4.412946 " transform="matrix(1.75,0,0,1.75,0,0)"/>
</g>
</svg>
