<?xml version="1.0" encoding="UTF-8"?>
<svg xmlns="http://www.w3.org/2000/svg" xmlns:xlink="http://www.w3.org/1999/xlink" width="40px" height="40px" viewBox="0 0 40 40" version="1.1">
<g id="surface1">
<path style=" stroke:none;fill-rule:evenodd;fill:rgb(100%,100%,100%);fill-opacity:1;" d="M 32.847656 9.511719 C 33.496094 8.863281 33.496094 7.804688 32.847656 7.152344 C 32.195312 6.503906 31.136719 6.503906 30.488281 7.152344 L 23.386719 14.257812 C 22.394531 13.667969 21.234375 13.332031 20 13.332031 C 16.316406 13.332031 13.332031 16.316406 13.332031 20 C 13.332031 21.234375 13.667969 22.394531 14.257812 23.386719 L 7.152344 30.488281 C 6.503906 31.136719 6.503906 32.195312 7.152344 32.847656 C 7.804688 33.496094 8.863281 33.496094 9.511719 32.847656 L 16.613281 25.742188 C 17.605469 26.332031 18.765625 26.667969 20 26.667969 C 23.683594 26.667969 26.667969 23.683594 26.667969 20 C 26.667969 18.765625 26.332031 17.605469 25.742188 16.613281 Z M 20.863281 16.777344 C 20.585938 16.707031 20.296875 16.667969 20 16.667969 C 18.160156 16.667969 16.667969 18.160156 16.667969 20 C 16.667969 20.296875 16.707031 20.585938 16.777344 20.863281 Z M 19.136719 23.222656 L 23.222656 19.136719 C 23.292969 19.414062 23.332031 19.703125 23.332031 20 C 23.332031 21.839844 21.839844 23.332031 20 23.332031 C 19.703125 23.332031 19.414062 23.292969 19.136719 23.222656 Z M 26.277344 8.035156 C 24.382812 7.203125 22.28125 6.667969 20 6.667969 C 15.246094 6.667969 11.261719 8.992188 8.328125 11.511719 C 5.386719 14.035156 3.34375 16.898438 2.441406 18.28125 C 1.757812 19.332031 1.757812 20.667969 2.441406 21.71875 C 3.203125 22.886719 4.777344 25.109375 7.019531 27.292969 L 9.378906 24.933594 C 7.425781 23.039062 6.019531 21.089844 5.300781 20 C 6.148438 18.710938 7.964844 16.21875 10.503906 14.035156 C 13.125 11.785156 16.359375 10 20 10 C 21.289062 10 22.523438 10.222656 23.699219 10.609375 Z M 20 30 C 18.710938 30 17.476562 29.777344 16.300781 29.390625 L 13.722656 31.964844 C 15.617188 32.796875 17.71875 33.332031 20 33.332031 C 24.753906 33.332031 28.738281 31.007812 31.671875 28.488281 C 34.613281 25.964844 36.65625 23.101562 37.558594 21.71875 C 38.242188 20.667969 38.242188 19.332031 37.558594 18.28125 C 36.796875 17.113281 35.222656 14.890625 32.980469 12.707031 L 30.621094 15.066406 C 32.574219 16.960938 33.980469 18.910156 34.699219 20 C 33.851562 21.289062 32.035156 23.78125 29.496094 25.964844 C 26.875 28.214844 23.640625 30 20 30 Z M 20 30 "/>
</g>
</svg>
