<?xml version="1.0" encoding="UTF-8" standalone="no"?>
<!DOCTYPE svg PUBLIC "-//W3C//DTD SVG 1.1//EN" "http://www.w3.org/Graphics/SVG/1.1/DTD/svg11.dtd">
<svg width="100%" height="100%" viewBox="0 0 40 40" version="1.1" xmlns="http://www.w3.org/2000/svg" xmlns:xlink="http://www.w3.org/1999/xlink" xml:space="preserve" xmlns:serif="http://www.serif.com/" style="fill-rule:evenodd;clip-rule:evenodd;stroke-linejoin:round;stroke-miterlimit:2;">
    <g id="surface1">
        <path d="M32.848,9.512C33.496,8.863 33.496,7.805 32.848,7.152C32.195,6.504 31.137,6.504 30.488,7.152L23.387,14.258C22.395,13.668 21.234,13.332 20,13.332C16.316,13.332 13.332,16.316 13.332,20C13.332,21.234 13.668,22.395 14.258,23.387L7.152,30.488C6.504,31.137 6.504,32.195 7.152,32.848C7.805,33.496 8.863,33.496 9.512,32.848L16.613,25.742C17.605,26.332 18.766,26.668 20,26.668C23.684,26.668 26.668,23.684 26.668,20C26.668,18.766 26.332,17.605 25.742,16.613L32.848,9.512ZM20.863,16.777C20.586,16.707 20.297,16.668 20,16.668C18.16,16.668 16.668,18.16 16.668,20C16.668,20.297 16.707,20.586 16.777,20.863L20.863,16.777ZM19.137,23.223L23.223,19.137C23.293,19.414 23.332,19.703 23.332,20C23.332,21.84 21.84,23.332 20,23.332C19.703,23.332 19.414,23.293 19.137,23.223ZM26.277,8.035C24.383,7.203 22.281,6.668 20,6.668C15.246,6.668 11.262,8.992 8.328,11.512C5.387,14.035 3.344,16.898 2.441,18.281C1.758,19.332 1.758,20.668 2.441,21.719C3.203,22.887 4.777,25.109 7.02,27.293L9.379,24.934C7.426,23.039 6.02,21.09 5.301,20C6.148,18.711 7.965,16.219 10.504,14.035C13.125,11.785 16.359,10 20,10C21.289,10 22.523,10.223 23.699,10.609L26.277,8.035ZM20,30C18.711,30 17.477,29.777 16.301,29.391L13.723,31.965C15.617,32.797 17.719,33.332 20,33.332C24.754,33.332 28.738,31.008 31.672,28.488C34.613,25.965 36.656,23.102 37.559,21.719C38.242,20.668 38.242,19.332 37.559,18.281C36.797,17.113 35.223,14.891 32.98,12.707L30.621,15.066C32.574,16.961 33.98,18.91 34.699,20C33.852,21.289 32.035,23.781 29.496,25.965C26.875,28.215 23.641,30 20,30Z" style="fill:white;stroke:black;stroke-width:1px;"/>
    </g>
</svg>
