<?xml version="1.0" encoding="UTF-8"?>
<svg xmlns="http://www.w3.org/2000/svg" xmlns:xlink="http://www.w3.org/1999/xlink" width="45px" height="45px" viewBox="0 0 45 45" version="1.1">
<g id="surface1">
<path style=" stroke:none;fill-rule:nonzero;fill:rgb(0%,0%,0%);fill-opacity:1;" d="M 22.5 0 C 34.925781 0 45 10.074219 45 22.5 C 45 34.925781 34.925781 45 22.5 45 C 10.074219 45 0 34.925781 0 22.5 C 0 10.074219 10.074219 0 22.5 0 Z M 22.5 0 "/>
<path style=" stroke:none;fill-rule:nonzero;fill:rgb(100%,100%,100%);fill-opacity:1;" d="M 22.5 2.8125 C 11.628906 2.8125 2.8125 11.628906 2.8125 22.5 C 2.8125 33.371094 11.628906 42.1875 22.5 42.1875 C 33.371094 42.1875 42.1875 33.371094 42.1875 22.5 C 42.1875 11.628906 33.371094 2.8125 22.5 2.8125 Z M 22.5 40.957031 C 12.324219 40.957031 4.042969 32.675781 4.042969 22.5 C 4.042969 12.324219 12.324219 4.042969 22.5 4.042969 C 32.675781 4.042969 40.957031 12.324219 40.957031 22.5 C 40.957031 32.675781 32.675781 40.957031 22.5 40.957031 Z M 22.5 40.957031 "/>
<path style=" stroke:none;fill-rule:nonzero;fill:rgb(100%,100%,100%);fill-opacity:1;" d="M 17.40625 13.679688 L 17.40625 31.34375 L 32.703125 22.511719 Z M 17.40625 13.679688 "/>
</g>
</svg>
