<?xml version="1.0" encoding="UTF-8"?>
<svg xmlns="http://www.w3.org/2000/svg" xmlns:xlink="http://www.w3.org/1999/xlink" width="40px" height="40px" viewBox="0 0 40 40" version="1.1">
<g id="surface1">
<path style="fill-rule:nonzero;fill:rgb(100%,100%,100%);fill-opacity:1;stroke-width:2;stroke-linecap:round;stroke-linejoin:round;stroke:rgb(100%,100%,100%);stroke-opacity:1;stroke-miterlimit:4;" d="M 11.24529 4.17421 C 11.477321 3.508587 11.592164 3.175775 11.763258 3.082025 C 11.910914 3.002338 12.089038 3.002338 12.239038 3.082025 C 12.410131 3.175775 12.524975 3.508587 12.757006 4.17421 L 14.287471 8.575764 C 14.353096 8.765607 14.385909 8.861701 14.444502 8.932013 C 14.496065 8.992951 14.564033 9.042169 14.639033 9.072638 C 14.725752 9.107794 14.824189 9.110138 15.025751 9.112482 L 19.685117 9.208575 C 20.390584 9.222638 20.742146 9.229669 20.882771 9.363263 C 21.004645 9.48045 21.060895 9.649199 21.030427 9.815605 C 20.995271 10.007792 20.714021 10.21873 20.153866 10.645291 L 16.43903 13.462473 C 16.279655 13.582004 16.199968 13.642941 16.150749 13.722629 C 16.106218 13.790597 16.080437 13.870285 16.075749 13.949972 C 16.068718 14.043722 16.099187 14.139815 16.155436 14.329659 L 17.505434 18.79215 C 17.70934 19.467149 17.812464 19.804648 17.72809 19.980429 C 17.655433 20.130428 17.510121 20.235897 17.343715 20.259334 C 17.151528 20.285116 16.860904 20.083554 16.284342 19.680429 L 12.457006 17.017935 C 12.292944 16.903091 12.210913 16.846841 12.121851 16.823404 C 12.042163 16.804654 11.960132 16.804654 11.880445 16.823404 C 11.791383 16.846841 11.709352 16.903091 11.542946 17.017935 L 7.717953 19.680429 C 7.139048 20.083554 6.850768 20.285116 6.656237 20.259334 C 6.489831 20.235897 6.346862 20.130428 6.274206 19.980429 C 6.189831 19.804648 6.290612 19.467149 6.494518 18.79215 L 7.844516 14.329659 C 7.903109 14.139815 7.931234 14.043722 7.926547 13.949972 C 7.919515 13.870285 7.893734 13.790597 7.851547 13.722629 C 7.802328 13.642941 7.722641 13.582004 7.563266 13.462473 L 3.84843 10.645291 C 3.285931 10.21873 3.007025 10.007792 2.971869 9.815605 C 2.9414 9.649199 2.995307 9.48045 3.117181 9.363263 C 3.257806 9.229669 3.611712 9.222638 4.314835 9.208575 L 8.976545 9.112482 C 9.175763 9.110138 9.276544 9.107794 9.360919 9.072638 C 9.438262 9.042169 9.503887 8.992951 9.55545 8.932013 C 9.616387 8.861701 9.649199 8.765607 9.714824 8.575764 Z M 11.24529 4.17421 " transform="matrix(1.66667,0,0,1.66667,0,0)"/>
</g>
</svg>
