<?xml version="1.0" encoding="UTF-8"?>
<svg xmlns="http://www.w3.org/2000/svg" xmlns:xlink="http://www.w3.org/1999/xlink" width="40px" height="40px" viewBox="0 0 40 40" version="1.1">
<g id="surface1">
<path style="fill-rule:evenodd;fill:rgb(100%,100%,100%);fill-opacity:1;stroke-width:1;stroke-linecap:butt;stroke-linejoin:round;stroke:rgb(100%,100%,100%);stroke-opacity:1;stroke-miterlimit:2;" d="M 10.503906 25.960938 C 7.964844 23.78125 6.152344 21.289062 5.300781 20 C 6.152344 18.710938 7.964844 16.21875 10.503906 14.039062 C 13.125 11.785156 16.359375 10 20 10 C 23.640625 10 26.875 11.785156 29.496094 14.039062 C 32.035156 16.21875 33.847656 18.710938 34.699219 20 C 33.847656 21.289062 32.035156 23.78125 29.496094 25.960938 C 26.875 28.214844 23.640625 30 20 30 C 16.359375 30 13.125 28.214844 10.503906 25.960938 Z M 20 6.667969 C 15.246094 6.667969 11.261719 8.992188 8.332031 11.511719 C 5.386719 14.039062 3.347656 16.894531 2.441406 18.28125 C 1.753906 19.332031 1.753906 20.667969 2.441406 21.71875 C 3.347656 23.105469 5.386719 25.960938 8.332031 28.488281 C 11.261719 31.007812 15.246094 33.332031 20 33.332031 C 24.753906 33.332031 28.738281 31.007812 31.671875 28.488281 C 34.613281 25.960938 36.652344 23.105469 37.558594 21.71875 C 38.246094 20.667969 38.246094 19.332031 37.558594 18.28125 C 36.652344 16.894531 34.613281 14.039062 31.671875 11.511719 C 28.738281 8.992188 24.753906 6.667969 20 6.667969 Z M 16.667969 20 C 16.667969 18.160156 18.160156 16.667969 20 16.667969 C 21.839844 16.667969 23.332031 18.160156 23.332031 20 C 23.332031 21.839844 21.839844 23.332031 20 23.332031 C 18.160156 23.332031 16.667969 21.839844 16.667969 20 Z M 20 13.332031 C 16.316406 13.332031 13.332031 16.316406 13.332031 20 C 13.332031 23.683594 16.316406 26.667969 20 26.667969 C 23.683594 26.667969 26.667969 23.683594 26.667969 20 C 26.667969 16.316406 23.683594 13.332031 20 13.332031 Z M 20 13.332031 "/>
</g>
</svg>
